<svg width="345" height="435" viewBox="0 0 345 435" fill="none" xmlns="http://www.w3.org/2000/svg">
<path fill-rule="evenodd" clip-rule="evenodd" d="M338.65 0C338.65 3.01565 335.842 5.4503 332.364 5.4503C328.886 5.4503 326.11 3.01565 326.11 0H319.824C319.824 3.01565 317.016 5.4503 313.538 5.4503C310.092 5.4503 307.284 3.01565 307.284 0H300.998C300.998 3.01565 298.19 5.4503 294.711 5.4503C291.233 5.4503 288.489 3.01565 288.489 0H282.203C282.203 3.01565 279.395 5.4503 275.917 5.4503C272.439 5.4503 269.663 3.01565 269.663 0H263.377C263.377 3.01565 260.569 5.4503 257.091 5.4503C253.613 5.4503 250.837 3.01565 250.837 0H244.551C244.551 3.01565 241.743 5.4503 238.264 5.4503C234.786 5.4503 231.978 3.01565 231.978 0H225.692C225.692 3.01565 222.884 5.4503 219.406 5.4503C215.928 5.4503 213.12 3.01565 213.12 0H206.834C206.834 3.01565 204.026 5.4503 200.548 5.4503C197.07 5.4503 194.262 3.01565 194.262 0H187.976C187.976 3.01565 185.168 5.4503 181.69 5.4503C178.212 5.4503 175.595 3.01565 175.595 0H169.309C169.309 3.01565 166.501 5.4503 163.023 5.4503C159.545 5.4503 156.737 3.01565 156.737 0H150.451C150.451 3.01565 147.643 5.4503 144.165 5.4503C140.687 5.4503 137.879 3.01565 137.879 0H131.593C131.593 3.01565 128.785 5.4503 125.307 5.4503C121.829 5.4503 119.021 3.01565 119.021 0H112.734C112.734 3.01565 109.926 5.4503 106.448 5.4503C102.97 5.4503 100.162 3.01565 100.162 0H93.8763C93.8763 3.01565 91.0683 5.4503 87.5902 5.4503C84.1121 5.4503 81.3041 3.01565 81.3041 0H75.018C75.018 3.01565 72.21 5.4503 68.732 5.4503C65.2539 5.4503 62.4459 3.01565 62.4459 0H56.1598C56.1598 3.01565 53.3518 5.4503 49.8738 5.4503C46.3957 5.4503 43.5877 3.01565 43.5877 0H37.3016C37.3016 3.01565 34.4936 5.4503 31.0155 5.4503C27.5375 5.4503 25.0805 3.01565 25.0805 0H18.8263C18.8263 3.01565 16.0183 5.4503 12.5402 5.4503C9.06215 5.4503 6.28607 3.01565 6.28607 0H0V435H6.28607C6.28607 431.984 9.09406 429.55 12.5721 429.55C16.0502 429.55 18.8582 431.984 18.8582 435H25.1443C25.1443 431.984 27.9523 429.55 31.4304 429.55C34.9084 429.55 37.7164 431.984 37.7164 435H44.0025C44.0025 431.984 46.8105 429.55 50.2886 429.55C53.7667 429.55 56.5746 431.984 56.5746 435H62.8607C62.8607 431.984 65.6687 429.55 69.1468 429.55C72.6249 429.55 75.4329 431.984 75.4329 435H81.7189C81.7189 431.984 84.5269 429.55 88.005 429.55C91.4831 429.55 94.2911 431.984 94.2911 435H100.577C100.577 431.984 103.385 429.55 106.863 429.55C110.341 429.55 113.149 431.984 113.149 435H119.435C119.435 431.984 122.243 429.55 125.721 429.55C129.2 429.55 132.008 431.984 132.008 435H138.294C138.294 431.984 141.102 429.55 144.58 429.55C148.058 429.55 150.866 431.984 150.866 435H157.152C157.152 431.984 159.96 429.55 163.438 429.55C166.916 429.55 169.724 431.984 169.724 435H176.01C176.01 431.984 178.818 429.55 182.296 429.55C185.774 429.55 188.582 431.984 188.582 435H194.868C194.868 431.984 197.676 429.55 201.154 429.55C204.632 429.55 207.44 431.984 207.44 435H213.726C213.726 431.984 216.534 429.55 220.012 429.55C223.491 429.55 226.299 431.984 226.299 435H232.585C232.585 431.984 235.393 429.55 238.871 429.55C242.349 429.55 245.157 431.984 245.157 435H251.443C251.443 431.984 254.251 429.55 257.729 429.55C261.207 429.55 264.015 431.984 264.015 435H270.301C270.301 431.984 273.109 429.55 276.587 429.55C280.065 429.55 282.873 431.984 282.873 435H289.159C289.159 431.984 291.967 429.55 295.445 429.55C298.923 429.55 301.731 431.984 301.731 435H307.284C307.284 431.984 310.092 429.55 313.57 429.55C317.048 429.55 319.856 431.984 319.856 435H326.142C326.142 431.984 328.95 429.55 332.428 429.55C335.906 429.55 338.714 431.984 338.714 435H345V0H338.65Z" fill="#263C77"/>
</svg>
