<svg width="484" height="365" viewBox="0 0 484 365" fill="none" xmlns="http://www.w3.org/2000/svg">
<g opacity="0.98">
<path d="M241.2 110.049C241.2 117.221 247.026 123.037 254.214 123.037C261.402 123.037 267.228 117.221 267.228 110.049C267.228 102.876 261.402 97.0603 254.214 97.0603C247.026 97.0603 241.2 102.876 241.2 110.049Z" stroke="#00FFFB"/>
<path d="M69.6071 39.0112C69.6071 42.0383 72.0659 44.4939 75.1009 44.4939C78.1359 44.4939 80.5947 42.0383 80.5947 39.0112C80.5947 35.984 78.1359 33.5284 75.1009 33.5284C72.0659 33.5284 69.6071 35.984 69.6071 39.0112Z" stroke="#00F0FF" stroke-opacity="0.5"/>
<path d="M113.992 226.135L78.648 242.519C64.2821 249.174 55.8 264.255 57.5872 279.952L76.5171 364.094" stroke="#00FFFB" stroke-width="1.5" stroke-miterlimit="10" stroke-linejoin="round"/>
<path opacity="0.3" d="M304.213 84.0461C325.549 82.3446 364.838 55.0793 364.838 55.0793V96.2859L304.213 104.011V84.0461Z" stroke="#00FFFB" stroke-width="1.1042" stroke-miterlimit="10"/>
<path opacity="0.2" d="M304.213 158.72C324.765 164.95 364.838 189.622 364.838 189.622V148.415L304.213 138.755V158.72Z" stroke="#00FFFB" stroke-width="1.1042" stroke-miterlimit="10"/>
<path d="M373.169 53.8993C412.198 41.8241 483.244 1.30359 483.244 1.30359V76.1149L373.169 90.1386V53.8993V53.8993Z" stroke="#00FFFB" stroke-width="1.1042" stroke-miterlimit="10"/>
<path opacity="0.4" d="M371.643 189.484C408.335 203.124 481.718 245.593 481.718 245.593V170.782L371.643 153.245V189.484Z" stroke="#00FFFB" stroke-width="1.1042" stroke-miterlimit="10"/>
<g opacity="0.2">
<g opacity="0.2">
<path opacity="0.2" d="M302.687 132.964L363.312 140.045V105.287L302.687 111.078V132.964Z" stroke="#3FF3FF" stroke-width="1.1042" stroke-miterlimit="10"/>
</g>
</g>
<path d="M345.881 138.714L455.956 155.592V92.4712L345.881 107.538V138.714Z" stroke="#00FFFB" stroke-width="1.1042" stroke-miterlimit="10"/>
<path d="M423.099 108.087L352.521 115.071L423.237 109.596L423.099 108.087Z" fill="#3FF3FF"/>
<path d="M423.127 115.881L353.305 120.917L423.223 117.39L423.127 115.881Z" fill="#3FF3FF"/>
<g opacity="0.8">
<g opacity="0.8">
<path opacity="0.8" d="M450.925 179.783L381.144 164.428L450.581 181.265L450.925 179.783Z" fill="#3FF3FF"/>
</g>
<g opacity="0.8">
<path opacity="0.8" d="M450.333 192.531L380.112 171.701L449.879 193.972L450.333 192.531Z" fill="#3FF3FF"/>
</g>
<g opacity="0.8">
<path opacity="0.8" d="M451.158 207.09L380.882 181.046L450.622 208.503L451.158 207.09Z" fill="#3FF3FF"/>
</g>
</g>
<path d="M423.154 124.827L354.088 127.146L423.195 126.35L423.154 124.827Z" fill="#3FF3FF"/>
<path d="M423.209 133.801L354.088 131.825L423.141 135.311L423.209 133.801Z" fill="#3FF3FF"/>
<path d="M216.162 214.417V250.5C216.162 250.5 251 261.5 262 261.5C283.927 255.421 333.976 170.384 333.976 170.384C333.976 170.384 341.482 164.964 344.712 162.59C348.424 159.859 349.785 158.309 350.184 156.936C350.349 156.346 356.659 141.472 356.659 141.472C356.659 141.472 353.51 138.975 350.953 142.501C348.383 146.028 346.279 149.088 346.279 149.088L340.5 154.81L343.42 137.534C343.42 137.534 359.284 124.622 361.14 121.479C362.982 118.337 361.635 116.924 361.635 116.924C361.635 116.924 333.041 128.422 329.219 135.613C325.755 142.144 318.826 154.81 318.826 154.81C307.457 169.656 292.225 181.416 278.615 196.359C266.903 209.216 254.022 223.24 254.022 223.24L216.162 214.417Z" fill="#FFFAF0" stroke="#17245D" stroke-width="0.9007" stroke-miterlimit="10" stroke-linecap="round" stroke-linejoin="round"/>
<path d="M163.565 208.681C166.905 204.002 172.308 200.352 176.845 197.896C181.574 195.33 186.963 194.287 192.31 194.767C204.119 195.838 226.871 218.671 249.856 219.892C249.856 219.892 227.5 230.5 247 273.5L183.773 251.96L163.565 208.681Z" fill="#3F53B9"/>
<path d="M150.326 193.779C167.497 157.938 147.824 150.611 147.824 150.611L181.821 157.293L199.72 166.212C199.72 166.212 191.568 170.356 194.166 184.997C195.857 194.562 201.686 208.736 201.48 208.928C184.42 225.463 150.326 193.779 150.326 193.779Z" fill="#FFFAF0" stroke="#17245D" stroke-width="0.9007" stroke-miterlimit="10"/>
<path d="M134.434 135.791C138.875 148.031 141.872 152.586 152.87 160.669C157.296 163.921 164.871 164.428 164.981 164.511C178 174.953 195.459 178.548 202.841 175.337C211.996 171.344 217.317 140.223 210.539 116.704C202.937 90.3307 184.543 75.2916 162.891 79.6277C150.381 82.125 151.027 96.2173 145.652 105.836C140.291 115.455 128.922 120.587 134.434 135.791Z" fill="#FFFAF0" stroke="#17245D" stroke-width="0.9007" stroke-miterlimit="10"/>
<path d="M109.579 115.908C113.731 115.359 119.78 110.282 129.513 101.377C138.38 93.2534 154.038 70.0909 170.741 62.7909C187.444 55.5047 200.848 75.5797 200.848 75.5797C200.848 75.5797 206.951 59.4565 212.876 79.2159C218.238 97.1229 207.776 108.581 207.776 108.581L204.119 101.98C190.358 118.735 163.716 121.987 163.716 121.987C175.429 118.488 184.433 114.152 191.321 109.733C183.76 111.051 172.336 110.817 172.336 110.817C172.336 110.817 160.004 125.651 155.275 131.139C157.241 131.18 160.898 140.566 161.31 151.914C161.31 151.914 150.753 138.988 146.188 143.983C141.624 148.978 153.873 161.355 153.873 161.355C143.453 153.465 133.032 150.748 127.698 145.204C123.327 140.662 120.99 132.1 120.344 130.755C119.931 129.904 115.092 129.424 114.858 128.944C114.611 128.422 116.769 125.678 119.079 122.906C122.213 120.354 129.65 111.394 129.65 111.394C127.3 114.014 124.646 115.716 122.516 116.773C118.996 115.455 106.335 116.347 109.579 115.908Z" fill="#3F53B9"/>
<path d="M202.414 126.954C202.414 126.954 209.851 143.695 208.216 145.3C206.593 146.906 203.088 145.931 203.088 145.931" fill="#FFFAF0"/>
<path d="M202.414 126.954C203.624 130.933 205.095 134.803 206.415 138.686C206.758 139.661 207.075 140.635 207.35 141.609C207.638 142.57 207.899 143.585 207.968 144.491C207.968 144.683 207.941 144.943 207.913 144.957C207.831 145.067 207.625 145.245 207.46 145.355C207.088 145.602 206.621 145.767 206.154 145.863C205.191 146.082 204.146 146.041 203.115 145.931C204.091 146.316 205.15 146.494 206.236 146.467C206.786 146.439 207.336 146.316 207.872 146.069C208.147 145.931 208.367 145.794 208.628 145.52C208.931 145.136 208.903 144.82 208.958 144.518C208.958 142.226 208.229 140.292 207.611 138.288C206.195 134.364 204.504 130.563 202.414 126.954Z" fill="#17245D"/>
<path d="M208.078 153.108C208.078 153.108 197.135 156.044 186.495 151.255C186.495 151.255 191.774 159.008 202.662 161.204C202.662 161.204 204.944 154.398 208.078 153.108Z" fill="#FFFAF0"/>
<path d="M208.133 153.08C206.154 153.218 204.449 153.423 202.593 153.437C200.779 153.492 198.964 153.423 197.177 153.3C195.376 153.176 193.575 153.039 191.788 152.696C189.987 152.422 188.255 151.804 186.591 151.063C186.481 151.008 186.344 151.063 186.303 151.159C186.261 151.228 186.275 151.324 186.316 151.379C188.227 154.041 190.578 156.401 193.369 158.185C194.771 159.063 196.214 159.873 197.768 160.476C199.294 161.121 200.916 161.519 202.538 161.849H202.552C202.868 161.917 203.184 161.725 203.281 161.423C203.748 159.886 204.394 158.363 205.109 156.923C205.466 156.195 205.879 155.495 206.36 154.851C206.841 154.151 207.363 153.643 208.133 153.08ZM208.01 153.122C207.79 153.218 207.597 153.231 207.446 153.286C207.267 153.382 207.089 153.506 206.91 153.616C206.566 153.863 206.222 154.137 205.934 154.453C205.329 155.07 204.82 155.742 204.353 156.456C203.404 157.883 202.703 159.392 202.057 160.984L202.799 160.559C199.734 159.804 196.751 158.72 194.015 157.128C192.64 156.346 191.348 155.427 190.083 154.453C188.846 153.465 187.636 152.381 186.688 151.104L186.413 151.434C188.145 152.092 189.849 152.792 191.637 153.327C193.41 153.876 195.238 154.302 197.108 154.439C198.964 154.59 200.833 154.562 202.689 154.357C204.477 154.123 206.415 153.849 208.01 153.122Z" fill="#17245D"/>
<path d="M189.623 127.575C189.181 126.077 189.491 124.667 190.314 124.425C191.137 124.183 192.162 125.201 192.604 126.699C193.045 128.196 192.736 129.606 191.913 129.848C191.09 130.09 190.065 129.072 189.623 127.575Z" fill="#17245D"/>
<path d="M205.399 125.332C205.116 124.083 205.373 122.961 205.973 122.825C206.573 122.69 207.289 123.593 207.571 124.843C207.854 126.092 207.597 127.214 206.997 127.349C206.397 127.485 205.682 126.581 205.399 125.332Z" fill="#17245D"/>
<path d="M182.77 124.855C182.77 124.855 183.595 119.75 187.169 118.474L182.77 124.855Z" fill="#FFFAF0"/>
<path d="M182.77 124.855C183.086 123.551 183.622 122.289 184.351 121.191C185.093 120.093 186.096 119.201 187.292 118.831C187.499 118.762 187.622 118.543 187.554 118.337C187.485 118.131 187.265 118.008 187.059 118.076C187.045 118.076 187.031 118.09 187.018 118.09C185.657 118.666 184.653 119.778 184.007 120.985C183.374 122.193 182.976 123.51 182.77 124.855Z" fill="#17245D"/>
<path d="M211.9 121.603C211.487 120.313 210.869 119.078 210.03 117.98C209.192 116.896 207.996 115.949 206.511 115.689C206.291 115.647 206.099 115.798 206.057 116.004C206.016 116.224 206.167 116.416 206.374 116.457C206.387 116.457 206.401 116.457 206.415 116.457C207.652 116.539 208.821 117.253 209.728 118.227C210.635 119.201 211.364 120.368 211.9 121.603Z" fill="#17245D"/>
<path d="M200.036 204.688C200.036 204.688 215.392 213.333 217.468 218.328C221.372 227.672 224.877 256.516 229.565 281.448C233.277 301.221 239.711 350.414 250.255 363.271H120.659C120.659 363.271 122.227 327.032 115.972 301.715C115.972 301.715 99.9698 285.345 68.351 286.909C68.351 286.909 77.713 264.447 87.611 243.658C97.674 222.513 111.682 206.253 119.491 202.356C127.299 198.459 152.154 189.622 152.154 189.622C152.154 189.622 197.424 220.262 200.036 204.688Z" fill="#3F53B9"/>
<path d="M68.8874 286.868L72.8603 286.799C74.1801 286.799 75.5136 286.69 76.8333 286.827C79.4728 287.005 82.126 287.088 84.738 287.568C89.9894 288.227 95.1309 289.64 100.094 291.41C105.07 293.18 109.813 295.554 114.295 298.326C118.749 301.098 123.01 304.336 126.612 308.055L127.547 309.029L127.891 307.739C130.118 299.451 132.18 291.122 134.173 282.779C136.153 274.436 138.022 266.052 139.658 257.627C140.442 253.401 141.239 249.188 141.885 244.948C142.215 242.807 142.559 240.749 142.834 238.54C143.068 236.331 143.054 234.108 142.779 231.912C142.518 229.717 141.927 227.562 141.129 225.504C140.291 223.446 139.273 221.552 138.187 219.672C135.988 215.954 133.307 212.414 129.857 209.806L129.705 209.985C132.867 212.866 135.204 216.489 137.156 220.249C138.119 222.129 139.026 224.077 139.713 226.026C140.373 228.002 140.786 230.046 140.992 232.104C141.198 234.163 141.129 236.248 140.854 238.293C140.538 240.337 140.112 242.492 139.741 244.577L137.349 257.188C135.74 265.586 134.091 273.983 132.29 282.354C130.489 290.724 128.523 299.053 126.447 307.368L127.726 307.053C123.876 303.197 119.546 300.041 114.941 297.283C110.349 294.539 105.483 292.233 100.41 290.559C95.3509 288.871 90.1269 287.568 84.8205 287.019C82.181 286.594 79.514 286.58 76.847 286.456C75.5135 286.347 74.1801 286.484 72.8603 286.511L68.8736 286.676L68.8874 286.868Z" fill="#9C9CF7"/>
<path d="M358.501 363.641V310.662H316.352V363.641" stroke="#00FFFB" stroke-width="1.1042" stroke-miterlimit="10"/>
<path d="M320.256 324.685H311.925C305.601 324.685 300.474 329.804 300.474 336.116C300.474 342.428 305.601 347.546 311.925 347.546H320.256" stroke="#00FFFB" stroke-width="1.0261" stroke-miterlimit="10"/>
<path d="M254.764 223.254C254.764 223.254 259.287 224.818 258.174 241.559L254.764 223.254Z" fill="#FFFAF0"/>
<path d="M255.081 222.947C254.565 223.358 254.055 224.319 253.811 225.173C253.519 226.057 253.404 226.976 253.31 227.905C253.161 229.769 253.33 231.646 253.568 233.503C253.84 235.351 254.207 237.207 254.673 239.018C255.126 240.849 255.695 242.631 256.25 244.434C255.609 242.655 254.937 240.901 254.398 239.094C253.842 237.291 253.372 235.465 253.001 233.594C252.669 231.729 252.4 229.83 252.455 227.891C252.501 226.925 252.582 225.949 252.848 224.972C253.148 223.986 253.4 223.029 254.44 222.105L255.081 222.947Z" fill="#5551AD"/>
<path opacity="0.6" d="M142.916 234.286V243.068C142.916 250.052 142.38 257.037 141.308 263.953L132.771 319.032L116.769 306.175V305.983L118.721 302.086L127.175 307.547L142.916 234.286Z" fill="#263C77"/>
<g opacity="0.8">
<path d="M436.311 102.159L436.599 103.023L437.644 128.422L437.397 128.683L428.021 122.248L436.311 102.159Z" fill="#00AFE5"/>
<path d="M436.31 102.159L448.93 121.232L437.396 128.683L436.887 116.361L436.31 102.159Z" fill="#3FF3FF"/>
<path d="M437.492 130.92L437.643 131.084L438.015 140.141L437.891 140.566L428.103 124.484L437.492 130.92Z" fill="#00AFE5"/>
<path d="M437.891 140.566L437.492 130.92L449.013 123.469L437.891 140.566Z" fill="#3FF3FF"/>
<path d="M437.396 128.683L428.021 122.248L436.888 116.361L437.396 128.683Z" fill="#00AFE5"/>
<path d="M448.93 121.232L437.396 128.683L436.888 116.361L448.93 121.232Z" fill="#3FF3FF"/>
</g>
<path d="M96.4646 364.684C96.4646 364.684 81.6313 339.491 78.5107 315.327C77.9883 311.252 79.8717 293.894 83.006 287.074C102.128 289.215 110.789 294.772 119.203 300.782C116.577 304.789 115.395 310.634 113.841 317.001L128.936 363.751" fill="#FFFAF0"/>
<path d="M96.4646 364.684C96.4646 364.684 81.6313 339.491 78.5107 315.327C77.9883 311.252 79.8716 293.894 83.006 287.074C102.128 289.215 110.789 294.772 119.203 300.782C116.577 304.789 115.395 310.634 113.841 317.001L128.936 363.751" stroke="#17245D" stroke-width="0.9007" stroke-miterlimit="10"/>
<path d="M96.3653 310.905L112.205 315.971C111.463 315.266 110.369 314.375 108.895 313.535C106.138 311.964 102.031 310.56 96.3653 310.905Z" fill="#FFFAF0" stroke="#17245D"/>
<path d="M113.598 316.569C112.789 315.673 111.893 314.927 110.929 314.264C111.862 314.985 112.729 315.805 113.435 316.685L113.598 316.569Z" fill="#5551AD" stroke="#17245D"/>
<g opacity="0.8">
<path d="M463.283 180.538L463.53 181.251L464.382 202.136L464.19 202.355L459.873 194.356L463.283 180.538Z" fill="#00AFE5"/>
<path d="M463.284 180.538L473.663 196.222L464.191 202.355L463.765 192.215L463.284 180.538Z" fill="#3FF3FF"/>
<path d="M464.259 204.181L464.383 204.332L464.699 211.769L464.589 212.112L459.942 196.194L464.259 204.181Z" fill="#00AFE5"/>
<path d="M464.589 212.112L464.259 204.18L473.73 198.061L464.589 212.112Z" fill="#3FF3FF"/>
<path d="M464.19 202.355L459.873 194.356L463.764 192.215L464.19 202.355Z" fill="#00AFE5"/>
<path d="M473.662 196.222L464.19 202.355L463.764 192.215L473.662 196.222Z" fill="#3FF3FF"/>
</g>
<path d="M359.023 69.6107C359.023 69.6107 331.446 86.2278 307.238 89.0957L359.023 69.6107Z" fill="#20175B"/>
<path d="M358.638 68.9658C354.707 71.3397 350.624 73.5489 346.5 75.6346C342.362 77.7066 338.155 79.6414 333.88 81.4252C329.604 83.1816 325.232 84.7459 320.806 86.1043C316.365 87.4079 311.843 88.4371 307.237 89.1094C311.843 88.5743 316.407 87.6549 320.902 86.4748C325.384 85.2262 329.797 83.7854 334.154 82.1387C338.499 80.4647 342.774 78.6397 346.981 76.6775C351.187 74.6878 355.339 72.6021 359.408 70.2831L358.638 68.9658Z" fill="#3FF3FF"/>
<path d="M358.969 78.8318C358.969 78.8318 332.23 90.5914 308.035 93.4455L358.969 78.8318Z" fill="#20175B"/>
<path d="M358.652 78.1458C350.596 81.6997 342.279 84.7871 333.852 87.4491C325.411 90.0837 316.806 92.238 308.021 93.4593C316.833 92.485 325.535 90.5777 334.072 88.1764C342.609 85.7476 351.023 82.9072 359.271 79.5454L358.652 78.1458Z" fill="#3FF3FF"/>
<path d="M358.762 87.408C358.762 87.408 333 94.6119 308.406 98.3168L358.762 87.408Z" fill="#20175B"/>
<path d="M358.57 86.6807C350.335 89.0545 342.018 91.2089 333.659 93.1848C325.301 95.147 316.888 96.9034 308.419 98.3305C316.929 97.1504 325.397 95.6547 333.824 93.9258C342.252 92.1968 350.637 90.2895 358.982 88.1489L358.57 86.6807Z" fill="#3FF3FF"/>
<g opacity="0.8">
<g opacity="0.8">
<path opacity="0.8" d="M468.328 27.924C468.328 27.924 422.014 53.5151 380.634 61.6796L468.328 27.924Z" fill="#20175B"/>
<path opacity="0.8" d="M467.696 26.7987C460.891 30.5996 453.88 34.1673 446.827 37.5703C439.761 40.9733 432.599 44.1705 425.368 47.1893C418.123 50.2081 410.768 52.925 403.331 55.4361C395.88 57.8923 388.305 59.9918 380.634 61.6933C388.346 60.1976 395.99 58.304 403.523 56.0536C411.043 53.7483 418.494 51.2098 425.849 48.3968C433.19 45.5701 440.462 42.5513 447.652 39.3404C454.842 36.1158 461.936 32.7402 468.96 29.0765L467.696 26.7987Z" fill="#3FF3FF"/>
</g>
<g opacity="0.8">
<path opacity="0.8" d="M468.218 43.9099C468.218 43.9099 423.965 62.4755 381.954 69.2266L468.218 43.9099Z" fill="#20175B"/>
<path opacity="0.8" d="M467.709 42.7161C460.849 45.6388 453.852 48.3695 446.827 50.9492C439.789 53.5289 432.695 55.9439 425.546 58.208C418.412 60.4995 411.181 62.5304 403.936 64.4102C396.677 66.2901 389.336 67.8544 381.954 69.2266C389.377 68.074 396.76 66.7292 404.087 65.0415C411.414 63.3537 418.7 61.5287 425.931 59.443C433.162 57.3847 440.339 55.1617 447.473 52.7742C454.608 50.3728 461.688 47.8617 468.713 45.1037L467.709 42.7161Z" fill="#3FF3FF"/>
</g>
<g opacity="0.8">
<path opacity="0.8" d="M467.875 58.7567C467.875 58.7567 424.213 70.4751 382.573 76.8832L467.875 58.7567Z" fill="#20175B"/>
<path opacity="0.8" d="M467.545 57.5081C453.577 61.405 439.473 64.9453 425.313 68.2111C418.233 69.8577 411.126 71.3945 404.018 72.849C396.897 74.3173 389.749 75.6346 382.586 76.8832C389.79 75.8541 396.98 74.7426 404.142 73.494C411.305 72.2453 418.467 70.9143 425.602 69.4872C439.871 66.6331 454.086 63.5045 468.232 60.0191L467.545 57.5081Z" fill="#3FF3FF"/>
</g>
</g>
<path d="M200.036 204.688C203.157 206.637 206.236 208.64 209.178 210.835C210.649 211.919 212.107 213.045 213.468 214.252C214.787 215.46 216.162 216.75 216.932 218.273C218.238 221.566 218.98 225.202 219.668 228.784C220.341 232.379 220.891 236.001 221.455 239.624C222.637 246.869 223.723 254.128 225.07 261.345C226.404 268.563 227.902 275.767 229.717 282.889C228.397 275.671 227.132 268.44 225.991 261.195L222.651 239.432C222.06 235.809 221.468 232.187 220.754 228.564C220.396 226.753 220.011 224.955 219.544 223.158C219.09 221.36 218.554 219.604 217.77 217.847C216.808 216.091 215.365 214.883 213.976 213.662C212.546 212.468 211.062 211.384 209.536 210.341C206.443 208.297 203.295 206.39 200.036 204.688Z" fill="#263C77"/>
<path d="M68.8874 286.868L72.8603 286.799C74.1801 286.799 75.5136 286.69 76.8333 286.827C79.4728 287.005 82.126 287.088 84.738 287.568C89.9894 288.227 95.1309 289.64 100.094 291.41C105.07 293.18 109.813 295.554 114.295 298.326C118.749 301.098 123.01 304.336 126.612 308.055L127.547 309.029L127.891 307.739C130.118 299.451 132.18 291.122 134.173 282.779C136.153 274.436 138.022 266.052 139.658 257.627C140.442 253.401 141.239 249.188 141.885 244.948C142.215 242.807 142.559 240.749 142.834 238.54C143.068 236.331 143.054 234.108 142.779 231.912C142.518 229.717 141.927 227.562 141.129 225.504C140.291 223.446 139.273 221.552 138.187 219.672C135.988 215.954 133.307 212.414 129.857 209.806L129.705 209.985C132.867 212.866 135.204 216.489 137.156 220.249C138.119 222.129 139.026 224.077 139.713 226.026C140.373 228.002 140.786 230.046 140.992 232.104C141.198 234.163 141.129 236.248 140.854 238.293C140.538 240.337 140.112 242.492 139.741 244.577L137.349 257.188C135.74 265.586 134.091 273.983 132.29 282.354C130.489 290.724 128.523 299.053 126.447 307.368L127.726 307.053C123.876 303.197 119.546 300.041 114.941 297.283C110.349 294.539 105.483 292.233 100.41 290.559C95.3509 288.871 90.1269 287.568 84.8205 287.019C82.181 286.594 79.514 286.58 76.847 286.456C75.5135 286.347 74.1801 286.484 72.8603 286.511L68.8736 286.676L68.8874 286.868Z" fill="#263C77"/>
<path opacity="0.3" d="M47.0977 86.7081C68.9559 88.0803 86.5524 106.042 87.4597 127.887C87.9134 138.782 84.3116 148.827 78.0291 156.648L87.2123 172.346C88.3396 174.267 86.2225 176.449 84.2566 175.406L67.1825 166.295C59.8414 170.878 51.0432 173.334 41.6263 172.758C20.0568 171.454 2.52901 154 1.19553 132.47C-0.426651 106.495 21.0466 85.0615 47.0977 86.7081Z" fill="#20175B" stroke="#3FF3FF" stroke-width="1.1042" stroke-miterlimit="10"/>
<path d="M17.3304 126.768L34.5765 145.308L97.1467 82.4312" stroke="#00F0FF" stroke-opacity="0.5" stroke-width="4.6226" stroke-miterlimit="10" stroke-linejoin="round"/>
</g>
</svg>
