<svg width="20" height="20" viewBox="0 0 20 20" fill="none" xmlns="http://www.w3.org/2000/svg">
<path d="M8.22047 10.0128L0.358896 2.14286C-0.119633 1.66382 -0.119633 0.859709 0.358896 0.380667C0.837427 -0.0983747 1.64067 -0.0983747 2.11921 0.380667L9.99786 8.22926L17.8594 0.359281C18.338 -0.11976 19.1412 -0.11976 19.6197 0.359281C20.0983 0.838323 20.0983 1.64243 19.6197 2.12147L11.7795 10.0086L19.6411 17.8785C20.1196 18.3576 20.1196 19.1617 19.6411 19.6407C19.4018 19.8802 19.0814 20 18.7609 20C18.4405 20 18.1201 19.8802 17.8808 19.6407L10.0021 11.7707L2.14057 19.6407C1.9013 19.8802 1.58086 20 1.26041 20C0.93997 20 0.619526 19.8802 0.38026 19.6407C-0.0982704 19.1617 -0.0982704 18.3576 0.38026 17.8785L8.22047 10.0128Z" fill="#00FFFB"/>
</svg>
