<svg width="24" height="20" viewBox="0 0 24 20" fill="none" xmlns="http://www.w3.org/2000/svg">
<path d="M4.72442 10.3431V0.441177C4.72442 0.196078 4.5296 0 4.28607 0H2.70315C2.45962 0 2.2648 0.196078 2.2648 0.441177V10.3431C0.949755 10.8333 0 12.1078 0 13.6029C0 15.098 0.974108 16.3725 2.28915 16.8873V19.5588C2.28915 19.8039 2.48397 20 2.7275 20H4.31043C4.55395 20 4.74878 19.8039 4.74878 19.5588V16.8873C6.06382 16.3971 7.01358 15.1225 7.01358 13.6275C7.01358 12.1324 6.03947 10.8333 4.72442 10.3431ZM3.50679 15.2696C2.60574 15.2696 1.8508 14.5343 1.8508 13.6029C1.8508 12.6961 2.58139 11.9363 3.50679 11.9363C4.43219 11.9363 5.16277 12.6716 5.16277 13.6029C5.16277 14.5343 4.40784 15.2696 3.50679 15.2696Z" fill="#3FF3FF"/>
<path d="M12.8094 3.11274V0.441177C12.8094 0.196078 12.6146 0 12.371 0H10.7881C10.5446 0 10.3498 0.196078 10.3498 0.441177V3.11274C9.03472 3.60294 8.08496 4.87745 8.08496 6.37255C8.08496 7.86765 9.03472 9.14216 10.3498 9.63235V19.5588C10.3498 19.8039 10.5446 20 10.7881 20H12.371C12.6146 20 12.8094 19.8039 12.8094 19.5588V9.65686C14.1244 9.16667 15.0742 7.89216 15.0742 6.39706C15.0742 4.90196 14.1244 3.62745 12.8094 3.11274ZM11.5917 8.03922C10.6907 8.03922 9.93577 7.30392 9.93577 6.37255C9.93577 5.46569 10.6663 4.70588 11.5917 4.70588C12.4928 4.70588 13.2477 5.44118 13.2477 6.37255C13.2477 7.30392 12.4928 8.03922 11.5917 8.03922Z" fill="#3FF3FF"/>
<path d="M23.1596 13.6029C23.1596 12.1078 22.2099 10.8333 20.8948 10.3431V0.441177C20.8948 0.196078 20.7 0 20.4565 0H18.8736C18.63 0 18.4352 0.196078 18.4352 0.441177V10.3431C17.1202 10.8333 16.1704 12.1078 16.1704 13.6029C16.1704 15.098 17.1202 16.3725 18.4352 16.8627V19.5588C18.4352 19.8039 18.63 20 18.8736 20H20.4565C20.7 20 20.8948 19.8039 20.8948 19.5588V16.8873C22.2099 16.3725 23.1596 15.098 23.1596 13.6029ZM19.6772 15.2696C18.7761 15.2696 18.0212 14.5343 18.0212 13.6029C18.0212 12.6961 18.7518 11.9363 19.6772 11.9363C20.5782 11.9363 21.3332 12.6716 21.3332 13.6029C21.3332 14.5343 20.5782 15.2696 19.6772 15.2696Z" fill="#3FF3FF"/>
</svg>
