<svg width="60" height="26" viewBox="0 0 60 26" fill="none" xmlns="http://www.w3.org/2000/svg">
<g clip-path="url(#clip0)">
<g opacity="0.5">
<path opacity="0.5" d="M9.39817 7.44731C9.47636 7.41609 9.42944 7.35364 9.2418 7.38486L9.1167 7.49415L9.39817 7.44731Z" fill="#FF6F6F"/>
<path opacity="0.5" d="M8.0844 7.4317C8.03749 7.46292 7.97494 7.49415 7.92803 7.52537C7.88112 7.5566 7.83421 7.58783 7.80293 7.63466C7.74038 7.69712 7.74038 7.74395 7.81857 7.77518C7.99058 7.60344 8.06877 7.63466 8.27205 7.46292C8.31896 7.44731 8.36587 7.4317 8.39715 7.4317C8.44406 7.4317 8.47534 7.4317 8.50661 7.4317C8.56916 7.4317 8.60043 7.44731 8.5848 7.47854C8.64734 7.44731 8.8819 7.44731 8.99136 7.38486C8.72553 7.32241 8.39715 7.36925 8.0844 7.52537C8.00622 7.49415 8.06877 7.46292 8.0844 7.4317Z" fill="#FF6F6F"/>
<path opacity="0.5" d="M6.58358 24.5589C6.55231 24.5277 6.5054 24.5121 6.47412 24.4809C6.5054 24.5121 6.55231 24.5277 6.58358 24.5589Z" fill="#FF6F6F"/>
<path opacity="0.5" d="M18.6241 25.4489C18.5303 25.4489 18.499 25.4645 18.4834 25.4645C18.5772 25.4645 18.6398 25.4645 18.6241 25.4489Z" fill="#FF6F6F"/>
<path opacity="0.5" d="M20.6886 25.5582C20.6417 25.5582 20.6104 25.5582 20.5635 25.5582C20.6104 25.5738 20.6573 25.5738 20.6886 25.5582Z" fill="#FF6F6F"/>
<path opacity="0.5" d="M6.5835 24.5589L6.84933 24.7619C6.89624 24.7463 6.72423 24.6526 6.5835 24.5589Z" fill="#FF6F6F"/>
<path opacity="0.5" d="M5.97365 8.96175C6.00492 8.91491 6.03619 8.86807 6.06747 8.82124C6.03619 8.85246 5.98928 8.8993 5.95801 8.94614C5.97364 8.94614 5.97365 8.94614 5.97365 8.96175Z" fill="#FF6F6F"/>
<path opacity="0.5" d="M4.14408 19.8907V19.797C4.12844 19.7658 4.11281 19.7346 4.09717 19.719L4.14408 19.8907Z" fill="#FF6F6F"/>
<path opacity="0.5" d="M4.12842 15.8002C4.12842 15.8938 4.2066 15.9251 4.25352 15.9563C4.22224 15.9095 4.2066 15.8314 4.19097 15.7533C4.17533 15.7689 4.15969 15.7689 4.12842 15.8002Z" fill="#FF6F6F"/>
<path opacity="0.5" d="M5.12891 9.43013C5.14454 9.39891 5.16018 9.36768 5.19146 9.32085C5.17582 9.35207 5.14454 9.39891 5.12891 9.43013Z" fill="#FF6F6F"/>
<path opacity="0.5" d="M4.81652 22.8259C4.81652 22.8415 4.80088 22.8572 4.81652 22.8728C4.81652 22.8728 4.81652 22.8572 4.81652 22.8259Z" fill="#FF6F6F"/>
<path opacity="0.5" d="M14.1518 7.65028V7.63467C14.1362 7.63467 14.1206 7.65028 14.1518 7.65028Z" fill="#FF6F6F"/>
<path opacity="0.5" d="M9.39844 7.21312H9.46099C9.46099 7.19751 9.47662 7.1819 9.47662 7.16628L9.39844 7.21312Z" fill="#FF6F6F"/>
<path opacity="0.5" d="M58.8431 23.4504C58.5304 23.7315 59.1715 22.8572 58.718 23.2943C58.7962 23.2631 58.4991 23.8251 58.8431 23.4504Z" fill="#FF6F6F"/>
<path opacity="0.5" d="M5.89559 9.0242C5.86432 9.05543 5.81741 9.10227 5.78613 9.14911C5.84868 9.08665 5.87996 9.05543 5.89559 9.0242Z" fill="#FF6F6F"/>
<path opacity="0.5" d="M58.7334 23.2943L58.6865 23.3412C58.7022 23.3099 58.7178 23.3099 58.7334 23.2943Z" fill="#FF6F6F"/>
<path opacity="0.5" d="M33.1827 25.6206C33.1671 25.605 33.1358 25.5894 33.0889 25.5894C33.1045 25.5894 33.1201 25.605 33.1827 25.6206Z" fill="#FF6F6F"/>
<path opacity="0.5" d="M26.6929 25.4957L26.8492 25.5113C26.7867 25.4957 26.7398 25.4957 26.6929 25.4957Z" fill="#FF6F6F"/>
<path opacity="0.5" d="M36.5601 25.4957C36.6539 25.4957 36.6695 25.5113 36.7946 25.4957C36.779 25.4957 36.779 25.4957 36.7633 25.4801C36.7164 25.5113 36.6539 25.5113 36.5601 25.4957Z" fill="#FF6F6F"/>
<path opacity="0.5" d="M40.0787 25.4957C40.0631 25.4957 40.0318 25.4801 40.0162 25.4801C39.9849 25.4801 39.938 25.4801 39.9067 25.4801L40.0787 25.4957Z" fill="#FF6F6F"/>
<path opacity="0.5" d="M24.8165 7.60344C24.7383 7.57221 24.6914 7.5566 24.6601 7.52538C24.707 7.58783 24.191 7.60344 24.8165 7.60344Z" fill="#FF6F6F"/>
<path opacity="0.5" d="M5.94242 8.93053C5.94242 8.96175 5.92678 8.99298 5.89551 9.0242C5.92678 8.99298 5.94242 8.96175 5.97369 8.94614C5.97369 8.91492 5.95806 8.91492 5.94242 8.93053Z" fill="#FF6F6F"/>
<path opacity="0.5" d="M36.7007 24.8087L37.2636 24.8244C37.1073 24.8087 36.904 24.8087 36.7007 24.8087Z" fill="#FF6F6F"/>
<path opacity="0.5" d="M49.9923 7.58783L49.8672 7.60344C49.9141 7.60344 49.961 7.60344 49.9923 7.58783Z" fill="#FF6F6F"/>
<path opacity="0.5" d="M38.9209 24.8087C39.0147 24.84 39.1242 24.8556 39.2336 24.8712C39.2493 24.8712 39.2806 24.8556 39.2962 24.8556L38.9209 24.8087Z" fill="#FF6F6F"/>
<path opacity="0.5" d="M20.9853 7.72834C21.517 7.72834 21.2355 7.61905 21.345 7.5566C21.9861 7.52538 21.6421 7.63467 21.861 7.69712C22.252 7.66589 22.5647 7.5566 22.8618 7.57221C22.8774 7.58783 22.94 7.60344 22.8774 7.61905C23.2996 7.52538 24.1128 7.61905 24.6132 7.49415C24.6444 7.50976 24.6601 7.50976 24.6757 7.52538C24.5975 7.46292 24.5819 7.41609 24.5975 7.36925C24.8321 7.36925 25.0354 7.29118 25.1292 7.36925C24.9885 7.36925 24.9728 7.40047 24.9103 7.41609L25.1605 7.38486C25.3794 7.49415 24.8165 7.41609 24.8165 7.50976C25.3012 7.47854 25.8641 7.38486 26.2394 7.41609C26.3176 7.52538 25.3638 7.44731 25.8641 7.54099L25.2856 7.49415C25.7234 7.66589 24.9416 7.47854 25.3325 7.66589C26.0987 7.69712 26.1769 7.61905 26.9431 7.65028C27.1151 7.58783 26.8806 7.5566 27.0526 7.50976C28.1315 7.40047 27.897 7.77518 28.6945 7.63467C28.8978 7.5566 28.976 7.4317 29.5389 7.49415L29.3512 7.61905C30.0862 7.63467 29.7735 7.44731 30.5397 7.52538C30.3989 7.57221 29.9611 7.57221 30.0706 7.57221C30.571 7.66589 30.4302 7.50976 30.8055 7.50976L30.8837 7.61905C31.6656 7.60344 32.5256 7.52538 33.4013 7.50976C33.3544 7.54099 33.198 7.57221 33.4013 7.60344C34.4959 7.5566 35.7312 7.61905 36.7946 7.6815L37.2011 7.58783C37.295 7.58783 37.3731 7.63467 37.2793 7.65028C37.6859 7.6815 37.295 7.58783 37.4982 7.5566C37.7328 7.5566 37.811 7.60344 37.6546 7.63467C38.3739 7.5566 39.7187 7.46292 40.4849 7.57221L40.3286 7.60344C40.9228 7.63467 41.001 7.41609 41.5483 7.49415H41.4388C42.7367 7.54099 44.1597 7.44731 45.1448 7.58783C45.3325 7.46292 46.4271 7.65028 46.5053 7.46292C47.2402 7.5566 47.0369 7.58783 48.069 7.65028C48.3505 7.66589 48.4756 7.54099 48.8196 7.50976L48.8352 7.60344L49.3043 7.50976L49.5545 7.61905L49.8829 7.58783C49.7578 7.58783 49.6171 7.54099 49.6327 7.50976C50.1331 7.46292 50.8524 7.57221 50.8681 7.61905L52.0565 7.54099C52.0252 7.57221 51.8376 7.58783 51.6812 7.61905C52.3223 7.52538 51.7907 7.71273 52.3849 7.63467C52.3067 7.61905 52.4318 7.57221 52.4474 7.5566C52.7445 7.61905 53.4013 7.61905 53.886 7.58783L53.7922 7.65028C54.0111 7.65028 54.2457 7.65028 54.4646 7.65028C54.5897 7.65028 54.6835 7.65028 54.793 7.65028C54.9025 7.65028 55.0119 7.65028 55.1214 7.66589C55.5592 7.69712 55.9971 7.82202 56.4193 7.99376C56.2785 7.9157 56.2316 7.86886 56.2473 7.83763C56.2629 7.80641 56.3724 7.80641 56.4975 7.85324L56.56 7.99376C56.7477 8.00937 56.3254 7.83763 56.6851 7.9157C56.8415 7.99376 56.8727 8.05621 56.8571 8.07182C56.8415 8.08744 56.7477 8.08744 56.6538 8.05621C56.7789 8.10305 56.904 8.1655 57.0291 8.22795C57.0291 8.25918 56.9353 8.22795 56.904 8.24356C56.9822 8.25918 57.1386 8.36847 57.2637 8.49337C57.3262 8.55582 57.4044 8.61827 57.467 8.66511C57.5295 8.72756 57.5921 8.7744 57.6546 8.79001V8.82124C57.8266 8.96175 57.9517 9.11788 58.0768 9.24278C58.1863 9.3833 58.2801 9.5082 58.3739 9.61749C58.4521 9.74239 58.5459 9.8673 58.6241 10.0078C58.6867 10.1483 58.7805 10.2888 58.843 10.4606C58.8899 10.445 58.9212 10.523 58.9838 10.6011C59.015 10.6479 59.0307 10.6948 59.062 10.7572C59.0932 10.8041 59.1089 10.8665 59.1401 10.9134C59.2027 11.1788 59.234 11.4754 59.234 11.7877C59.234 11.9438 59.234 12.0843 59.234 12.2561C59.234 12.4278 59.2183 12.5995 59.234 12.7869C59.2809 13.2865 59.3122 12.9274 59.3591 13.1616C59.2809 13.1928 59.2809 13.911 59.234 13.5363C59.2496 14.395 59.2496 14.6292 59.3122 15.7065C59.3434 15.5816 59.3591 15.4567 59.3903 15.5191C59.406 15.7221 59.3591 15.9719 59.3122 15.9407L59.2965 15.8938C59.4216 17.1116 59.062 18.6885 59.234 19.6565L59.2183 19.6097L59.2652 20.1093L59.2809 20.5777C59.2496 20.7963 59.234 20.7182 59.234 20.6401C59.2183 20.5621 59.2027 20.4684 59.1714 20.6245C59.1714 20.8743 59.1558 21.1085 59.0932 21.2959C59.062 21.4988 58.9838 21.6862 58.9056 21.8579C58.8743 21.9516 58.8274 22.0297 58.7805 22.1077C58.7336 22.1858 58.7023 22.2795 58.6554 22.3575C58.6085 22.4356 58.5616 22.5137 58.5147 22.6073C58.499 22.6542 58.4677 22.701 58.4521 22.7322C58.4208 22.7791 58.4052 22.8259 58.3739 22.8571C58.0924 23.0601 57.7328 23.466 57.2637 23.8251C56.7946 24.1842 56.2316 24.4653 55.7938 24.4965L55.8563 24.5433C55.653 24.6526 55.5905 24.5902 55.4341 24.6058C55.4654 24.6526 55.6843 24.6058 55.5436 24.6682C55.4341 24.6995 55.309 24.7151 55.1996 24.7307C55.137 24.7463 55.0745 24.7463 55.0276 24.7619L54.8555 24.7775C54.7304 24.7775 54.621 24.7931 54.4959 24.7931C54.3708 24.7931 54.2301 24.7931 54.105 24.7931C53.5889 24.7931 53.0573 24.7775 52.5256 24.7619C51.4623 24.7307 50.3989 24.6838 49.3512 24.6526C48.585 24.637 48.9134 24.9336 47.9595 24.8087L48.241 24.6995C46.6929 24.8244 45.0823 24.6995 43.5811 24.7931C43.6749 24.7619 43.6749 24.7307 43.8157 24.7463C43.5029 24.6682 42.6429 24.7463 42.6272 24.8087C42.3927 24.8087 42.5803 24.7463 42.424 24.7151C42.1112 24.6682 41.6265 24.8087 41.4545 24.7307C41.4232 24.7151 41.5483 24.6995 41.5952 24.6995C41.3919 24.7307 40.6257 24.6838 40.829 24.7775C40.266 24.7307 39.75 24.8087 39.2965 24.7619C38.9994 24.8556 38.327 24.7151 38.2332 24.8556C38.2801 24.7151 37.2324 24.7463 36.8727 24.8087C36.9978 24.7619 36.56 24.7619 36.7007 24.6995C36.2942 24.6995 35.9189 24.7307 35.9814 24.7931C35.2308 24.6214 34.4646 24.9337 34.0424 24.7151C32.8227 24.7931 31.6968 24.84 30.6022 24.8712C30.6491 24.7307 31.8063 24.8556 31.7594 24.7151C30.7273 24.7775 30.1175 24.8868 29.1011 24.8556C28.8352 24.84 29.2574 24.7931 29.3356 24.7775C28.3036 24.84 27.334 24.7619 26.4115 24.84C26.4115 24.8244 26.5209 24.8087 26.6147 24.8087C26.4271 24.8087 26.1925 24.7931 26.2082 24.8556L26.3802 24.84C26.6773 24.9337 25.6609 25.0273 25.6296 25.0898C25.9423 24.9024 24.7226 25.0429 25.2074 24.8087C25.0823 24.8244 24.9416 24.8556 24.9728 24.8868C24.8008 24.8712 24.7383 24.8556 24.9259 24.7931C24.2692 24.8244 24.5037 24.9024 23.9095 24.8868C23.9095 24.8556 24.0346 24.84 24.0971 24.8087C23.8 24.8712 23.5029 24.9337 23.0025 24.9024C23.0338 24.8868 22.9713 24.8556 23.1276 24.8556C22.2676 24.8712 21.6734 25.0117 20.7351 24.9649C21.0166 24.8244 20.4224 24.918 20.3598 24.8087L19.8595 24.84L20.0627 24.9024C19.6249 24.9024 19.234 24.9805 18.843 24.9493L19.1714 24.9024L18.3426 24.918L18.8118 24.9649C18.3583 25.0273 18.8587 25.1054 18.2645 25.0742C18.3896 25.0586 17.8266 25.0742 17.5921 25.0117C17.3731 25.0429 17.1542 25.0898 16.8258 25.0586C16.7477 25.0273 16.8884 24.9337 16.8415 24.9024C16.6226 24.9961 15.8094 24.9337 15.5279 25.0273C15.6218 24.9961 15.6218 24.9493 15.5905 24.9337L15.4029 25.0117C15.1996 24.9805 15.1683 24.9805 15.1996 24.918C14.5897 24.9024 15.4029 25.0586 14.6679 24.9961C14.7305 24.9961 14.6992 24.9805 14.8243 24.9649C14.0893 24.9336 13.4013 25.0117 12.7289 24.9805C12.5256 24.8556 13.3231 24.9493 13.0885 24.8556C12.119 24.8712 11.0713 24.9961 10.1331 24.9649L10.3051 24.9805C10.2426 25.0586 10.0706 25.0429 9.85164 25.0117C9.74218 24.9961 9.61708 24.9805 9.49198 24.9649C9.36689 24.9493 9.25742 24.9493 9.13233 24.9649C9.24179 24.9649 9.2887 24.8868 9.25743 24.9024C9.10105 24.8868 8.94468 24.8868 8.78831 24.8556C8.63194 24.84 8.45993 24.8244 8.28792 24.7775C8.19409 24.7619 8.11591 24.7463 8.02208 24.7307C7.92826 24.6995 7.83444 24.6838 7.74061 24.6526C7.53733 24.6058 7.34968 24.5121 7.13076 24.4184L7.25586 24.434C6.94312 24.2311 6.44273 23.9188 6.17689 23.6222C6.0518 23.5753 5.91106 23.4036 5.95797 23.5441C5.61395 23.0133 5.26993 22.5605 5.01974 22.0609C4.75391 21.5613 4.59753 21.0148 4.66008 20.4528C4.66008 20.5777 4.72263 20.7494 4.707 20.6557C4.67572 20.4996 4.67572 20.3591 4.66008 20.203C4.64445 20.0468 4.64445 19.8907 4.62881 19.7346C4.55062 19.8127 4.5819 19.8595 4.53499 20.0625C4.48807 19.9376 4.4568 19.6721 4.4568 19.4379C4.50371 19.8751 4.56626 19.4379 4.61317 19.2506C4.59753 19.2818 4.56626 19.2194 4.55062 19.235C4.67572 18.7354 4.40989 19.1569 4.48807 18.47L4.51935 18.5012C4.50371 18.2514 4.4568 18.0172 4.4568 17.7361C4.53499 17.6269 4.48807 18.0016 4.56626 18.0328C4.56626 17.6425 4.40989 17.2678 4.48807 16.9243C4.50371 17.096 4.51935 17.3302 4.53499 17.4863C4.62881 17.1116 4.61317 17.0648 4.62881 16.7838V16.815L4.67572 16.1593L4.64445 16.331C4.42553 15.847 4.59753 15.3474 4.4568 14.6917C4.59753 15.3318 4.53499 14.8009 4.62881 14.8478C4.66008 14.676 4.69136 14.4262 4.707 14.5043C4.62881 14.192 4.76954 13.9891 4.66008 13.5519C4.69136 13.5363 4.66008 13.224 4.73827 13.2865C4.70699 12.8806 4.69136 13.3802 4.64445 13.349C4.59753 13.0367 4.62881 12.6776 4.64445 12.2873C4.66008 12.0843 4.69136 11.897 4.69136 11.694C4.707 11.6003 4.72263 11.491 4.72263 11.3817C4.72263 11.3349 4.72263 11.2724 4.73827 11.2256C4.73827 11.1788 4.75391 11.1163 4.75391 11.0695C4.89464 10.3513 4.86337 10.1796 5.16047 9.52381C5.23866 9.43014 5.23866 9.49259 5.22302 9.57065C5.16047 9.72678 5.11356 9.83607 5.11356 9.83607C5.34812 9.53943 5.50449 9.30524 5.70778 9.00859C5.6765 9.08666 5.73905 9.03982 5.84851 8.97737C6.03616 8.75879 5.89542 8.75879 6.20817 8.54021C6.17689 8.60266 6.16126 8.71195 6.08307 8.82124C6.30199 8.57143 6.52091 8.32163 6.80238 8.11866C6.91184 8.11866 6.66165 8.2904 6.5991 8.39969C6.63037 8.36847 6.67728 8.33724 6.70856 8.30602C6.75547 8.27479 6.80238 8.24356 6.84929 8.21234C6.94312 8.14989 7.03694 8.08744 7.13076 8.02499C7.31841 7.9157 7.47478 7.80641 7.50606 7.74395L7.25586 7.80641C7.38096 7.74396 7.34968 7.83763 7.2715 7.90008C7.20895 7.94692 7.1464 7.99376 7.08385 8.00937C7.03694 8.0406 6.99003 8.05621 6.94312 8.07182C6.86493 8.10305 6.81802 8.08744 6.80238 8.08744L7.00567 7.94692C6.92748 7.94692 6.83366 7.97815 6.73983 8.02499C6.69292 8.05621 6.63037 8.08744 6.58346 8.11866C6.53655 8.1655 6.474 8.21234 6.42709 8.25918C6.38018 8.30602 6.31763 8.35285 6.27072 8.41531C6.2238 8.46214 6.17689 8.5246 6.12998 8.58705C6.03616 8.69634 5.9267 8.79001 5.84851 8.88369C5.86415 8.80563 5.87979 8.71195 5.91106 8.63388C5.8016 8.7744 5.72341 8.94614 5.62959 9.08666C5.58268 9.11788 5.53577 9.13349 5.50449 9.11788C5.47322 9.11788 5.47322 9.05543 5.56704 8.96175C5.48886 9.0242 5.44194 9.07104 5.41067 9.11788C5.3794 9.16472 5.36376 9.19595 5.34812 9.22717C5.31685 9.28962 5.26993 9.35207 5.16047 9.46136C5.1292 9.49259 5.1292 9.46136 5.14484 9.43014L4.98846 9.75801C5.0041 9.67994 4.879 9.75801 5.0041 9.58627C4.95719 9.64872 4.91028 9.71117 4.86337 9.77362C4.83209 9.83607 4.80082 9.89852 4.76954 9.96097C4.72263 10.0859 4.66008 10.1952 4.64445 10.3045C4.59753 10.5074 4.55062 10.6635 4.47244 10.7728V10.7104C4.37861 11.1632 4.39425 11.1788 4.42553 11.1788C4.4568 11.1788 4.50371 11.1632 4.50371 11.491L4.34734 11.694C4.30043 11.7721 4.25352 11.8345 4.22224 11.9126L4.31606 12.0063C4.30043 12.0999 4.28479 12.2873 4.25352 12.2561C4.31606 12.5995 4.30043 12.1936 4.36298 12.3966C4.26915 12.8337 4.40989 13.6144 4.25352 13.7237C4.3317 13.8798 4.31606 13.3021 4.36298 13.7705C4.2066 13.911 4.39425 14.3169 4.31606 14.7229C4.23788 14.598 4.26915 14.2077 4.2066 14.6136C4.34734 14.8634 4.17533 15.3942 4.2066 15.7377C4.31606 15.7533 4.25352 16.4871 4.28479 17.0492C4.25352 17.018 4.22224 18.1265 4.17533 18.6573L4.15969 18.6417C4.26915 18.751 4.25352 19.2974 4.26915 19.6877C4.2066 19.6721 4.17533 19.5941 4.14406 19.3911V19.7658C4.17533 19.8595 4.2066 19.9688 4.22224 20.2186L4.12842 20.1249C4.14406 20.6401 4.28479 21.171 4.42553 21.8111C4.47244 21.8111 4.47244 21.6706 4.51935 21.6081C4.53499 21.5769 4.56626 21.5613 4.59753 21.6081C4.62881 21.6393 4.67572 21.733 4.75391 21.8735C4.72263 21.9048 4.66008 21.9672 4.5819 21.7955C4.61317 21.8423 4.69136 21.9828 4.707 22.0921L4.55062 21.8579C4.62881 22.1546 4.66008 21.9828 4.73827 22.2014C4.67572 22.217 4.76954 22.3732 4.72263 22.3732C4.69136 22.3263 4.64445 22.1702 4.59753 22.0921C4.61317 22.1233 4.61317 22.1546 4.62881 22.1858L4.67572 22.2795C4.70699 22.3419 4.72263 22.42 4.75391 22.4824C4.76954 22.5449 4.80082 22.6073 4.80082 22.6542C4.81646 22.701 4.83209 22.7479 4.83209 22.7791C4.84773 22.7479 4.91028 22.7322 5.01974 22.904C5.14484 23.1226 5.17611 23.1694 5.16047 23.2006C5.14484 23.2319 5.1292 23.2319 5.20739 23.3724C5.26993 23.4036 5.33248 23.5129 5.39503 23.5753C5.47322 23.6534 5.53577 23.7002 5.56704 23.669C5.66086 23.7783 5.66087 23.8251 5.6765 23.8876C5.73905 23.9344 5.81724 23.9969 5.91106 24.0749C5.95797 24.1218 6.00488 24.153 6.06743 24.1998C6.11434 24.2467 6.17689 24.2779 6.2238 24.3091C6.42709 24.4497 6.56782 24.5277 6.474 24.4028L6.42709 24.356C6.44273 24.356 6.45836 24.3716 6.45836 24.3716C6.84929 24.5746 7.22459 24.8087 7.64679 24.9649C7.85008 25.0586 8.069 25.121 8.28792 25.1835C8.39738 25.2147 8.50684 25.2303 8.6163 25.2459C8.72576 25.2615 8.83522 25.2771 8.94468 25.2771V25.3084C9.06978 25.3084 9.21051 25.3084 9.35125 25.3084C9.49198 25.3084 9.61708 25.3084 9.75782 25.2927C10.0236 25.2771 10.2582 25.2771 10.4459 25.2303C10.6022 25.2303 10.7899 25.2927 10.7273 25.324C11.1183 25.3084 11.1495 25.2615 11.7125 25.324C11.3215 25.3708 11.8532 25.3708 11.3215 25.3708C11.8219 25.402 11.9314 25.4489 12.4787 25.3552C12.291 25.4333 12.854 25.4489 13.0885 25.4333L12.7445 25.3708C13.0104 25.3552 13.2449 25.3708 13.4795 25.3708L13.3544 25.4801C14.3708 25.605 15.1996 25.2615 15.9814 25.4801C16.2473 25.402 15.4185 25.4333 15.6687 25.3396C16.1378 25.3552 16.6382 25.4957 16.7789 25.4957C17.4201 25.5582 17.3731 25.3396 18.0612 25.3864C17.9674 25.3552 17.8892 25.2459 18.4052 25.2147C18.8743 25.2303 18.9838 25.3708 18.6867 25.402C18.5772 25.402 18.5147 25.3864 18.5303 25.3864C18.3739 25.402 18.1706 25.4176 18.3583 25.4489L18.4208 25.4176C18.6554 25.4489 19.2965 25.4489 19.1558 25.5113C19.5154 25.4801 19.3122 25.4489 19.0463 25.4333C19.6562 25.4801 19.9846 25.4333 20.61 25.4645C20.5162 25.4489 20.4224 25.402 20.5162 25.402C21.4232 25.4489 20.9228 25.324 21.5326 25.3084C21.8767 25.3708 21.4075 25.4489 22.033 25.402C22.4083 25.4333 22.1112 25.4957 21.9548 25.5269C22.5178 25.4489 23.0182 25.5738 23.3309 25.5894L23.0338 25.6206C23.2058 25.605 23.3622 25.605 23.5029 25.605L23.3309 25.5269C23.5029 25.5425 23.6593 25.5426 23.6593 25.5738C23.8469 25.5269 23.5186 25.4489 23.8782 25.3864C24.1128 25.4176 24.5975 25.3396 24.6757 25.4489C23.9408 25.4176 24.7539 25.5425 24.1284 25.5582C24.2535 25.5425 24.3943 25.5425 24.5663 25.5582C24.5975 25.5738 24.535 25.5738 24.4881 25.5894C25.1917 25.6831 24.8165 25.4801 25.5358 25.4801C25.4419 25.5425 25.7078 25.5894 25.8172 25.5738C25.5201 25.5738 25.6765 25.4801 25.9423 25.4333C26.4115 25.4801 26.4584 25.402 26.6929 25.402L26.4115 25.3864C26.5053 25.324 26.7398 25.3396 27.0682 25.324C27.0995 25.3708 26.7711 25.3552 26.8962 25.3708C27.2559 25.2771 27.7093 25.4645 28.2254 25.402C28.4599 25.4333 28.241 25.5113 28.4599 25.5269C29.0229 25.4489 29.0698 25.605 29.664 25.5426C29.492 25.4645 29.4607 25.4801 29.8829 25.4176L28.8978 25.4645L29.5233 25.3552C29.2262 25.3552 28.8978 25.402 28.7258 25.3864C29.0229 25.324 28.9916 25.3396 28.8509 25.2771C29.2574 25.3864 29.6484 25.2147 30.1175 25.2927L30.1018 25.4801C30.8055 25.5582 31.3528 25.3864 32.2598 25.4333L31.9627 25.402C32.0878 25.324 32.5256 25.3864 32.8227 25.3552C32.7914 25.4176 32.9791 25.4333 33.1042 25.4801C33.0885 25.4333 33.7766 25.4801 33.8548 25.3552L34.2613 25.4333C34.9963 25.4645 35.1057 25.2615 35.8094 25.2771C35.5905 25.3396 35.9189 25.3864 35.4498 25.4333C35.6843 25.4333 35.9032 25.4489 35.9032 25.402C36.044 25.4333 36.56 25.324 36.7789 25.3708C36.8727 25.3396 36.904 25.2771 37.1699 25.2771C37.2011 25.2927 37.1699 25.3084 37.1699 25.3084C37.1699 25.2771 37.5921 25.2615 37.3575 25.1991C38.0924 25.3864 39.3903 25.1835 40.0158 25.3552C40.5319 25.3396 41.1573 25.3084 41.6265 25.3084C41.5952 25.324 41.6265 25.3396 41.5326 25.3396C42.1738 25.402 41.9236 25.1678 42.6585 25.2303C43.0338 25.324 42.2676 25.2771 42.5021 25.324C42.6116 25.5269 43.3935 25.2927 43.8782 25.4176L43.7531 25.4333C44.1284 25.4957 44.6757 25.3552 45.2856 25.3708C45.2856 25.3708 45.2543 25.3864 45.2856 25.402C45.7078 25.2927 46.5053 25.2615 47.0995 25.2303C46.9118 25.3084 46.8337 25.2771 46.9431 25.3552C47.209 25.3396 46.8649 25.2303 47.3966 25.1991C47.5686 25.2459 47.9595 25.2771 48.0064 25.3708H47.5061C47.7562 25.4801 48.1472 25.3708 48.413 25.3864L48.3817 25.4333C49.148 25.4176 49.1636 25.2927 49.9924 25.3084L49.9142 25.2771C50.3677 25.1522 50.2895 25.3396 50.743 25.2615L50.8837 25.3864C51.1808 25.3552 51.9314 25.2615 52.4631 25.2459C52.1659 25.3396 51.5405 25.3864 51.1495 25.4333C51.4466 25.4333 52.1503 25.4176 52.3067 25.3708C52.1816 25.3864 52.0408 25.4176 51.9158 25.3864C52.2754 25.2927 52.7602 25.2459 53.3387 25.2459C53.2918 25.3708 53.6671 25.3864 54.1206 25.3864C54.3395 25.3864 54.5897 25.402 54.8086 25.3864C54.9181 25.3864 55.0276 25.3864 55.1214 25.402C55.2152 25.402 55.2934 25.402 55.3559 25.4176C55.6218 25.3708 55.8876 25.2771 56.1534 25.1991C56.2785 25.1522 56.4193 25.1054 56.5444 25.0586C56.6851 25.0117 56.8102 24.9493 56.9353 24.8868C57.4513 24.6526 57.9674 24.3248 58.4208 23.8564C58.3114 23.9032 58.2645 23.9032 58.2645 23.8876C58.2645 23.872 58.3114 23.8251 58.3583 23.7783C58.4521 23.669 58.5772 23.5285 58.4834 23.4973C58.5772 23.388 58.6398 23.2943 58.671 23.2475C58.7179 23.2006 58.7336 23.1694 58.7492 23.1694C58.7961 23.1226 58.8587 23.0601 58.9056 23.0133L59.0463 22.8415L59.1871 22.6698C59.234 22.6073 59.2652 22.5449 59.3122 22.4824C59.4529 22.3107 59.234 22.7635 59.2652 22.7479C59.4216 22.4668 59.4685 22.4044 59.5154 22.3732C59.5311 22.3575 59.5467 22.3575 59.578 22.3263C59.6093 22.2951 59.6405 22.2482 59.6875 22.1546C59.6405 22.1858 59.6405 22.1233 59.6718 21.9984C59.7031 21.8892 59.7656 21.7174 59.8125 21.5301C59.75 21.7018 59.6562 21.8579 59.5623 22.0141C59.5936 21.9048 59.6249 21.8111 59.6405 21.7174C59.6718 21.6393 59.6874 21.5613 59.7031 21.4988C59.75 21.3739 59.7813 21.2803 59.8282 21.1866C59.8595 21.0929 59.9064 20.9992 59.922 20.8587C59.9376 20.7963 59.9533 20.7182 59.9533 20.6245C59.9533 20.5308 59.9533 20.4372 59.9533 20.3123L60.0002 20.6089C60.0002 20.484 60.0002 20.3123 60.0002 20.1093C60.0002 19.9219 60.0002 19.719 59.9846 19.516C59.9689 19.1101 59.9376 18.7041 59.8595 18.4856C59.8751 18.4075 59.9376 18.2982 59.9533 18.5012C59.9689 17.4395 59.7969 16.128 59.8907 15.3006L59.9376 15.3786C59.922 15.1756 59.8438 15.0351 59.8907 14.7853C59.9064 14.8009 59.9376 14.8634 59.9376 14.7697C59.922 14.6604 59.8595 14.2389 59.8907 13.9735L59.9376 14.192C59.9689 13.6768 59.9376 13.2709 59.8907 12.8962C59.8438 12.5215 59.7969 12.178 59.75 11.7096C59.7813 11.7096 59.8125 11.6472 59.8282 11.5691C59.8438 11.4754 59.8438 11.3505 59.8282 11.2256C59.8282 11.1632 59.8282 11.0851 59.8125 11.007C59.7969 10.929 59.7813 10.8665 59.7813 10.7885C59.75 10.6479 59.7344 10.5074 59.7031 10.3981L59.7344 10.4137C59.5467 9.77362 59.2183 9.30524 58.8743 8.88369C58.7023 8.66511 58.499 8.49337 58.2957 8.30602C58.1863 8.22795 58.0768 8.13428 57.9674 8.0406C57.8579 7.94692 57.7328 7.88447 57.6077 7.79079C57.3575 7.50976 56.8102 7.15067 56.1534 6.9477C55.9814 6.90086 55.8094 6.85403 55.653 6.80719C55.481 6.77596 55.309 6.74474 55.137 6.71351C54.965 6.68228 54.793 6.68228 54.621 6.66667C54.449 6.65106 54.3082 6.65106 54.1675 6.63545C54.3395 6.66667 54.1362 6.74474 53.9329 6.76035C53.6671 6.72912 53.2136 6.85403 53.2449 6.72912H53.3387C53.1355 6.60422 52.6038 6.63545 52.1816 6.63545L52.119 6.80719C51.0088 6.57299 49.2262 6.90086 48.6319 6.68228C48.3661 6.72912 48.0377 6.72912 47.7719 6.76035L47.7875 6.66667C47.0526 6.65106 46.6773 6.63545 45.7703 6.65106L45.958 6.58861C45.4419 6.58861 45.3012 6.83841 44.8321 6.85403L44.6914 6.72912C43.8 6.72912 42.8931 6.61983 42.0018 6.72912C42.0174 6.71351 42.0487 6.66667 42.1894 6.66667C41.7672 6.66667 40.5631 6.57299 40.7039 6.76035C40.6882 6.63545 39.7813 6.74474 39.2965 6.80719L39.3747 6.71351C38.9681 6.8228 38.9525 6.85403 38.3896 6.88525C38.2488 6.86964 38.2645 6.8228 38.4521 6.83841C37.9986 6.79157 38.1081 6.91648 37.5608 6.86964L37.7641 6.80719C37.295 6.80719 37.3419 6.8228 37.076 6.90086C36.7789 6.93209 36.2003 6.88525 36.1222 6.80719C36.0596 6.85403 35.8094 6.91648 35.5279 6.90086C35.4967 6.86964 35.5905 6.85403 35.6374 6.83841C34.8555 6.77596 34.4803 6.93209 33.9486 6.85403C33.933 6.8228 33.9017 6.80719 33.8548 6.80719C34.4646 6.80719 34.965 6.80719 34.9181 6.8228C34.9181 6.74474 34.4177 6.72912 34.8086 6.61983C34.4021 6.68228 33.7297 6.80719 33.2449 6.77596C33.2136 6.77596 33.198 6.76035 33.1824 6.74474L33.2293 6.72912C33.1198 6.71351 33.0104 6.72912 32.9165 6.74474C32.7602 6.72912 32.6663 6.72912 32.51 6.71351C32.4474 6.65106 31.9314 6.68228 31.6968 6.68228C31.7125 6.77596 31.3997 6.76035 31.6968 6.8228C31.6499 6.8228 31.7437 6.80719 31.9158 6.80719C31.947 6.80719 31.9939 6.80719 32.0252 6.79157H32.0096C32.1659 6.79157 32.3849 6.79157 32.6194 6.79157C32.4161 6.83841 32.2129 6.86964 31.947 6.8228C31.8219 6.88525 31.6812 6.93209 31.603 6.96331C31.259 6.83841 30.6022 6.77596 30.524 6.6979C29.7735 6.74474 28.7414 6.72912 28.2566 6.90086C28.0377 6.91648 28.0064 6.85403 27.9283 6.8228C28.0534 6.80719 28.1941 6.80719 28.2723 6.79157C27.8344 6.83841 26.99 6.80719 26.8962 6.91648C26.3489 6.86964 27.209 6.80719 26.4584 6.8228L26.5522 6.79157C25.0823 6.60422 24.1597 7.08822 22.5334 6.85403C22.6429 6.86964 22.7054 6.86964 22.7211 6.90086C20.8602 6.79157 18.8899 6.99454 17.0604 6.83841C16.5444 6.80719 16.4818 6.88525 16.1691 6.93209L16.0596 6.83841L15.5123 6.9477C14.7461 7.02577 14.1831 6.71351 13.198 6.86964L13.3231 6.93209C12.9791 6.91648 12.2129 6.96332 12.2754 6.90086C12.2441 6.91648 12.1659 6.96332 12.0252 6.93209L12.0408 7.04138L11.1808 7.11944C10.5084 7.08822 11.2903 6.91648 10.3051 6.91648C9.94546 6.93209 9.27306 7.05699 9.4138 7.08822C9.55453 7.08822 9.78909 7.11944 9.80473 7.16628L9.47635 7.19751C9.4138 7.33802 9.1636 7.49415 9.97674 7.58783L10.5397 7.49415L10.7273 7.57221H10.2582C10.524 7.63467 10.696 7.57221 10.8837 7.54099C10.9306 7.57221 11.0088 7.60344 11.1183 7.61905L11.6812 7.47854C11.7437 7.54099 11.431 7.58783 11.8063 7.61905C12.0721 7.5566 11.5561 7.49415 11.9939 7.44731C12.2598 7.50976 12.1816 7.57221 12.51 7.50976C12.5569 7.54099 12.4943 7.57221 12.3692 7.58783C12.6507 7.54099 13.1198 7.57221 13.2606 7.49415C13.542 7.57221 14.2144 7.47854 14.1831 7.60344C14.277 7.57221 14.6835 7.49415 14.9337 7.49415C14.4646 7.66589 15.9032 7.50976 15.7781 7.6815C16.1222 7.54099 17.0448 7.61905 17.6702 7.54099C17.639 7.5566 17.5608 7.57221 17.5139 7.57221C17.8579 7.58783 17.9674 7.63467 18.1863 7.65028C18.2332 7.52538 18.7805 7.49415 19.0776 7.4317C19.4998 7.5566 18.8118 7.57221 18.9525 7.6815C18.9369 7.58783 19.7031 7.58783 19.5467 7.49415C19.8751 7.57221 19.8282 7.52538 20.0002 7.63467C20.0627 7.47854 20.3129 7.60344 20.5788 7.50976C21.0479 7.58783 20.7039 7.65028 21.2199 7.60344C21.4545 7.6815 20.9853 7.72834 20.9853 7.72834ZM33.4013 7.46292C33.2918 7.46292 33.198 7.46292 33.1511 7.46292C33.198 7.47854 33.2606 7.47854 33.4013 7.46292ZM34.4333 7.46292C34.3082 7.46292 34.1519 7.46292 33.9799 7.46292C33.9486 7.4317 33.9799 7.40047 34.0893 7.40047C34.0424 7.4317 34.277 7.44731 34.4333 7.46292ZM32.2285 6.85403C32.4005 6.83841 32.4474 6.85403 32.4787 6.86964C32.4005 6.86964 32.3067 6.86964 32.1972 6.88525C32.1972 6.88525 32.1816 6.88525 32.1816 6.90086C32.1816 6.88525 32.1972 6.86964 32.2285 6.85403Z" fill="#FF6F6F"/>
<path opacity="0.5" d="M31.9312 6.97893C31.8999 6.97893 31.8999 6.97893 31.8687 6.97893C31.8999 6.97893 31.9312 6.99454 31.9625 6.99454C31.9781 6.97893 32.0094 6.97893 32.025 6.96332C31.9937 6.97893 31.9625 6.97893 31.9312 6.97893Z" fill="#FF6F6F"/>
<path opacity="0.5" d="M6.47413 24.4653L6.48977 24.4809C6.47413 24.4653 6.4585 24.4497 6.4585 24.4497C6.47413 24.4497 6.47413 24.4497 6.47413 24.4653Z" fill="#FF6F6F"/>
<path opacity="0.5" d="M48.835 7.63466V7.61905L48.7412 7.63466H48.835Z" fill="#FF6F6F"/>
<path opacity="0.5" d="M4.55078 19.3443C4.55078 19.3287 4.56642 19.313 4.56642 19.2662C4.56642 19.2662 4.55078 19.2974 4.55078 19.3443Z" fill="#FF6F6F"/>
<path opacity="0.5" d="M4.56641 16.8618L4.59768 16.5184C4.58204 16.6589 4.56641 16.7838 4.56641 16.8618Z" fill="#FF6F6F"/>
<path opacity="0.5" d="M4.61331 14.9571C4.59767 14.9258 4.58203 14.9258 4.58203 14.9258L4.61331 14.9571Z" fill="#FF6F6F"/>
<path opacity="0.5" d="M26.5679 24.918C26.5991 24.918 26.6148 24.918 26.6461 24.918C26.8024 24.8868 26.693 24.9024 26.5679 24.918Z" fill="#FF6F6F"/>
<path opacity="0.5" d="M17.5298 25.121C17.6236 25.1054 17.7174 25.0898 17.8269 25.0742C17.6705 25.0742 17.5454 25.0586 17.5298 25.121Z" fill="#FF6F6F"/>
<path opacity="0.5" d="M18.2489 25.0742C18.0925 25.0586 17.9518 25.0586 17.8267 25.0742C17.9518 25.0742 18.1081 25.0898 18.2489 25.0742Z" fill="#FF6F6F"/>
<path opacity="0.5" d="M7.27148 8.00937L7.34967 7.97815V7.96253L7.27148 8.00937Z" fill="#FF6F6F"/>
<path opacity="0.5" d="M7.34961 7.96253L7.4278 7.9157C7.39652 7.93131 7.36525 7.94692 7.34961 7.96253Z" fill="#FF6F6F"/>
<path opacity="0.5" d="M7.61537 7.8064C7.55282 7.83763 7.49027 7.86886 7.44336 7.90008C7.47463 7.88447 7.50591 7.86886 7.53718 7.85324C7.56846 7.85324 7.59973 7.83763 7.61537 7.8064Z" fill="#FF6F6F"/>
<path opacity="0.5" d="M5.45752 9.53943L5.47316 9.58627C5.47316 9.57066 5.47316 9.55504 5.45752 9.53943Z" fill="#FF6F6F"/>
<path opacity="0.5" d="M5.09814 10.1796C5.17633 10.0234 5.36398 9.83607 5.47344 9.61749V9.58627C5.44216 9.69556 5.11378 9.9922 5.09814 10.1796Z" fill="#FF6F6F"/>
<path opacity="0.5" d="M4.22254 13.1928L4.25382 12.5527C4.22254 12.662 4.17563 12.8181 4.16 12.5215C4.06617 13.3333 4.23818 12.3497 4.22254 13.1928Z" fill="#FF6F6F"/>
<path opacity="0.5" d="M4.17534 15.1756C4.1597 14.8322 4.12843 15.1756 4.11279 15.16C4.12843 15.3786 4.14407 15.4411 4.17534 15.1756Z" fill="#FF6F6F"/>
<path opacity="0.5" d="M10.8682 25.4489L10.8369 25.5269C11.1027 25.5113 10.8369 25.4957 10.8682 25.4489Z" fill="#FF6F6F"/>
<path opacity="0.5" d="M13.6199 25.0429L13.3541 24.9805L13.229 25.0586L13.6199 25.0429Z" fill="#FF6F6F"/>
<path opacity="0.5" d="M15.2467 25.605L15.1216 25.6206L15.5751 25.5894L15.2467 25.605Z" fill="#FF6F6F"/>
<path opacity="0.5" d="M39.4532 25.5738L39.3751 25.4801C39.1874 25.4957 39.1561 25.605 39.4532 25.5738Z" fill="#FF6F6F"/>
<path opacity="0.5" d="M49.8984 25.4801C50.0079 25.5269 50.305 25.5582 50.4927 25.5113C50.2425 25.4957 50.0079 25.4645 49.8984 25.4801Z" fill="#FF6F6F"/>
<path opacity="0.5" d="M51.6032 6.83841L51.8221 6.80718L51.4155 6.83841H51.6032Z" fill="#FF6F6F"/>
</g>
<path d="M6.47388 5.16784C6.55206 5.13661 6.50515 5.07416 6.30187 5.10539L6.16113 5.21468L6.47388 5.16784Z" fill="#FF6F6F"/>
<path d="M5.11321 5.16784C5.00375 5.21468 4.89429 5.29274 4.83174 5.35519C4.76919 5.41764 4.76919 5.4801 4.84738 5.49571C5.03502 5.32397 5.09757 5.35519 5.30086 5.16784C5.4885 5.10539 5.64488 5.13661 5.62924 5.16784C5.69179 5.13661 5.94198 5.13661 6.03581 5.07416C5.76997 5.01171 5.42595 5.05855 5.11321 5.23029C5.05066 5.2459 5.11321 5.19907 5.11321 5.16784Z" fill="#FF6F6F"/>
<path d="M3.53425 22.8415L3.44043 22.7478C3.45607 22.7791 3.50298 22.8103 3.53425 22.8415Z" fill="#FF6F6F"/>
<path d="M15.8248 23.8095C15.731 23.8095 15.6841 23.8251 15.6841 23.8251C15.7779 23.8251 15.8561 23.8251 15.8248 23.8095Z" fill="#FF6F6F"/>
<path d="M17.9361 23.9188C17.8892 23.9188 17.8579 23.9188 17.811 23.9188C17.8736 23.9344 17.9205 23.9344 17.9361 23.9188Z" fill="#FF6F6F"/>
<path d="M3.53418 22.8415C3.61237 22.9196 3.72183 22.982 3.80001 23.0445C3.84692 23.0289 3.67491 22.9352 3.53418 22.8415Z" fill="#FF6F6F"/>
<path d="M2.98682 6.76034C3.03373 6.7135 3.04937 6.66666 3.08064 6.61983C3.04937 6.66666 3.01809 6.69789 2.98682 6.74473C2.98682 6.74473 2.98682 6.74473 2.98682 6.76034Z" fill="#FF6F6F"/>
<path d="M1.21976 17.9859V17.8923C1.20413 17.861 1.18849 17.8298 1.17285 17.8142L1.21976 17.9859Z" fill="#FF6F6F"/>
<path d="M1.2041 13.8017C1.2041 13.8954 1.28229 13.9266 1.3292 13.9578C1.29792 13.911 1.28229 13.8329 1.26665 13.7549C1.23538 13.7549 1.21974 13.7705 1.2041 13.8017Z" fill="#FF6F6F"/>
<path d="M2.14258 7.27557L2.18949 7.16628C2.18949 7.18189 2.15822 7.22873 2.14258 7.27557Z" fill="#FF6F6F"/>
<path d="M1.78273 21.0148C1.76709 21.0304 1.76709 21.0461 1.76709 21.0617C1.78273 21.0617 1.78273 21.0304 1.78273 21.0148Z" fill="#FF6F6F"/>
<path d="M11.3369 5.38642V5.3708C11.3057 5.3708 11.3057 5.38642 11.3369 5.38642Z" fill="#FF6F6F"/>
<path d="M6.47363 4.94926H6.53618C6.53618 4.93365 6.55182 4.91803 6.55182 4.90242L6.47363 4.94926Z" fill="#FF6F6F"/>
<path d="M56.9666 21.7174C56.8102 21.8735 56.8884 21.7174 56.9509 21.5769C56.9822 21.5144 56.9978 21.452 56.9978 21.4364C56.9822 21.4208 56.9509 21.452 56.8415 21.5769C56.904 21.5301 56.6069 22.1077 56.9666 21.7174Z" fill="#FF6F6F"/>
<path d="M2.90878 6.82279C2.8775 6.86963 2.83059 6.90086 2.79932 6.9477C2.84623 6.88525 2.89314 6.85402 2.90878 6.82279Z" fill="#FF6F6F"/>
<path d="M56.8414 21.5613L56.7944 21.6081C56.8101 21.5925 56.8257 21.5769 56.8414 21.5613Z" fill="#FF6F6F"/>
<path d="M30.7427 23.9813C30.7271 23.9657 30.6958 23.95 30.6489 23.95C30.6489 23.95 30.6646 23.9657 30.7427 23.9813Z" fill="#FF6F6F"/>
<path d="M24.0972 23.8564L24.2692 23.872C24.191 23.872 24.1441 23.8564 24.0972 23.8564Z" fill="#FF6F6F"/>
<path d="M34.1831 23.8564C34.2769 23.8564 34.3082 23.872 34.4177 23.8564C34.402 23.8564 34.402 23.8564 34.3864 23.8408C34.3551 23.872 34.2926 23.872 34.1831 23.8564Z" fill="#FF6F6F"/>
<path d="M37.7794 23.8564C37.7638 23.8564 37.7325 23.8408 37.7169 23.8408C37.6856 23.8408 37.6387 23.8408 37.6074 23.8408L37.7794 23.8564Z" fill="#FF6F6F"/>
<path d="M22.252 5.33958C22.1738 5.30835 22.1269 5.29274 22.0799 5.26151C22.1425 5.32396 21.6108 5.33958 22.252 5.33958Z" fill="#FF6F6F"/>
<path d="M2.9556 6.72912C2.9556 6.76034 2.93997 6.79157 2.90869 6.82279C2.93997 6.79157 2.9556 6.76034 2.98688 6.72912C2.97124 6.7135 2.97124 6.7135 2.9556 6.72912Z" fill="#FF6F6F"/>
<path d="M34.3394 23.1694L34.9023 23.185C34.7459 23.1694 34.5426 23.1694 34.3394 23.1694Z" fill="#FF6F6F"/>
<path d="M48.0221 5.32397L47.897 5.33958C47.9282 5.33958 47.9752 5.33958 48.0221 5.32397Z" fill="#FF6F6F"/>
<path d="M36.5908 23.1694C36.7003 23.2006 36.7941 23.2162 36.9192 23.2318C36.9505 23.2318 36.9661 23.2162 36.9818 23.2162L36.5908 23.1694Z" fill="#FF6F6F"/>
<path d="M18.3269 5.46448C18.8742 5.46448 18.5771 5.35519 18.7022 5.29274C19.359 5.26151 18.9993 5.3708 19.2182 5.43326C19.6248 5.40203 19.9375 5.29274 20.2346 5.30835C20.2503 5.32397 20.3128 5.33958 20.2503 5.35519C20.6725 5.26151 21.5169 5.35519 22.0173 5.23029C22.0486 5.2459 22.0798 5.2459 22.0798 5.26151C22.0016 5.19906 21.986 5.15223 22.0016 5.10539C22.2518 5.10539 22.4551 5.02732 22.549 5.10539C22.3926 5.10539 22.3926 5.13661 22.3144 5.15223L22.5646 5.121C22.7991 5.23029 22.2206 5.15222 22.2206 5.2459C22.721 5.21468 23.2995 5.121 23.6748 5.15223C23.753 5.26151 22.7835 5.18345 23.2839 5.27713L22.6897 5.23029C23.1432 5.40203 22.33 5.21468 22.7522 5.40203C23.5341 5.43326 23.6279 5.35519 24.3941 5.38642C24.5662 5.32397 24.3316 5.29274 24.5036 5.2459C25.5982 5.13661 25.3636 5.51132 26.1768 5.3708C26.3801 5.29274 26.4739 5.16784 27.0368 5.23029L26.8335 5.35519C27.5841 5.3708 27.2558 5.18345 28.0532 5.26151C27.9125 5.30835 27.459 5.30835 27.5685 5.30835C28.0845 5.40203 27.9282 5.2459 28.3191 5.2459L28.3973 5.35519C29.1948 5.33958 30.0861 5.26151 30.9618 5.2459C30.9149 5.27713 30.7585 5.30835 30.9618 5.33958C32.0877 5.29274 33.3543 5.35519 34.4332 5.41764L34.8398 5.32397C34.9336 5.32397 35.0118 5.3708 34.918 5.38642C35.3402 5.41764 34.9336 5.32397 35.1369 5.29274C35.3715 5.29274 35.4497 5.33958 35.3089 5.3708C36.0439 5.29274 37.4199 5.19906 38.2018 5.30835L38.0454 5.33958C38.6553 5.3708 38.7335 5.15223 39.2964 5.23029L39.1869 5.2459C40.5161 5.29274 41.9704 5.19906 42.9712 5.33958C43.1588 5.21468 44.2847 5.40203 44.3629 5.21468C45.1135 5.30835 44.8945 5.33958 45.9579 5.40203C46.2393 5.41764 46.3801 5.29274 46.7241 5.26151L46.7397 5.35519L47.2088 5.26151L47.459 5.3708L47.7874 5.33958C47.6623 5.33958 47.5059 5.29274 47.5216 5.26151C48.0376 5.21468 48.7726 5.32397 48.7882 5.3708L50.0079 5.29274C49.9766 5.32397 49.7733 5.33958 49.617 5.3708C50.2737 5.27713 49.7421 5.46448 50.3363 5.38642C50.2581 5.3708 50.3832 5.32397 50.3988 5.30835C50.6959 5.3708 51.3683 5.3708 51.8687 5.33958L51.7749 5.40203C51.9938 5.40203 52.2284 5.40203 52.4629 5.40203C52.5724 5.40203 52.6819 5.40203 52.7913 5.41764H52.9633L53.1353 5.43326C53.5732 5.48009 54.0267 5.605 54.4489 5.80796C54.3707 5.76112 54.3238 5.7299 54.3081 5.69867C54.2769 5.66745 54.2769 5.65183 54.2925 5.63622C54.3238 5.605 54.4176 5.62061 54.5427 5.66745L54.6052 5.80796C54.7929 5.82358 54.355 5.65183 54.7303 5.74551C54.8867 5.83919 54.918 5.90164 54.9024 5.91725C54.8711 5.93287 54.7929 5.91725 54.6991 5.88603C54.8242 5.94848 54.9493 6.01093 55.09 6.07338C55.09 6.10461 54.9962 6.07338 54.9649 6.08899C55.0118 6.10461 55.0744 6.13583 55.1369 6.18267C55.1995 6.22951 55.262 6.30757 55.3402 6.37002L55.4497 6.4637C55.4809 6.49493 55.5122 6.52615 55.5435 6.55738C55.606 6.61983 55.6686 6.66667 55.7468 6.68228V6.71351C56.0595 7.04137 56.2784 7.30679 56.4504 7.57221C56.4973 7.63466 56.5286 7.69711 56.5755 7.77518C56.6224 7.83763 56.6537 7.91569 56.685 7.97814C56.7163 8.05621 56.7632 8.11866 56.7945 8.19672C56.8257 8.27479 56.857 8.35285 56.8883 8.44653C56.9352 8.44653 56.9821 8.50898 57.029 8.60265C57.0759 8.69633 57.1072 8.82123 57.1854 8.93052C57.2323 9.21155 57.2479 9.5082 57.2323 9.82045C57.2323 9.97658 57.2167 10.1483 57.2167 10.3201C57.2167 10.4918 57.201 10.6792 57.2167 10.8509C57.2636 11.3661 57.2948 11.007 57.3418 11.2256C57.2636 11.2568 57.2636 11.9906 57.2167 11.6159C57.2323 12.4902 57.2323 12.74 57.2948 13.8329C57.3261 13.708 57.3418 13.5831 57.373 13.6456C57.3887 13.8486 57.3418 14.0984 57.2948 14.0671L57.2792 14.0203C57.4043 15.2693 57.0447 16.8931 57.2167 17.8767L57.201 17.8142C57.2323 18.1577 57.2636 18.5168 57.2792 18.829C57.2479 19.2662 57.2323 18.5636 57.1698 18.8759C57.1854 19.3911 57.0916 19.797 56.9508 20.1561C56.8101 20.5152 56.6224 20.8275 56.4348 21.2022C56.1533 21.4052 55.7937 21.8423 55.3246 22.217L55.1525 22.3575L54.9649 22.4824C54.9024 22.5293 54.8398 22.5605 54.7773 22.6073C54.7147 22.6386 54.6522 22.6698 54.574 22.701C54.5114 22.7322 54.4489 22.7635 54.3863 22.7947C54.3238 22.8259 54.2612 22.8415 54.1987 22.8571C54.0736 22.8884 53.9641 22.9352 53.8547 22.9352L53.9172 22.982C53.7139 23.0913 53.6514 23.0289 53.4794 23.0445C53.5106 23.0913 53.7296 23.0289 53.6045 23.1069C53.495 23.1382 53.3699 23.1538 53.2448 23.185L53.0572 23.2162L52.8695 23.2318C52.7444 23.2318 52.635 23.2475 52.4942 23.2475C52.3535 23.2475 52.2284 23.2475 52.0877 23.2475C51.556 23.2475 51.0087 23.2318 50.477 23.2162C49.398 23.185 48.3034 23.1382 47.2401 23.1069C46.4583 23.0913 46.8023 23.388 45.8015 23.2631L46.083 23.1538C44.5036 23.2787 42.8461 23.1538 41.3136 23.2475C41.4074 23.2162 41.4074 23.185 41.5638 23.2006C41.2354 23.1226 40.3597 23.2006 40.3441 23.2631C40.1095 23.2631 40.2816 23.2006 40.1408 23.1694C39.8124 23.1226 39.312 23.2631 39.14 23.185C39.1088 23.1694 39.2339 23.1538 39.2964 23.1538C39.0775 23.185 38.2956 23.1382 38.4989 23.2318C37.9203 23.185 37.3887 23.2631 36.9196 23.2162C36.6224 23.3099 35.9188 23.1694 35.8249 23.3099C35.8719 23.1694 34.8085 23.2006 34.4332 23.2631C34.5583 23.2162 34.1205 23.2162 34.2612 23.1538C33.839 23.1538 33.4637 23.185 33.5263 23.2475C32.7601 23.0757 31.9782 23.388 31.5403 23.1694C30.2894 23.2475 29.1479 23.2943 28.022 23.3255C28.0689 23.185 29.2573 23.3099 29.2104 23.1694C28.1471 23.2318 27.5372 23.3411 26.4895 23.3099C26.2237 23.2943 26.6459 23.2475 26.7397 23.2318C25.6764 23.2943 24.6912 23.2162 23.753 23.2943C23.753 23.2787 23.8625 23.2631 23.9563 23.2631C23.7687 23.2631 23.5185 23.2475 23.5497 23.3099L23.7374 23.2943C24.0345 23.388 23.0024 23.4817 22.9712 23.5441C23.2839 23.3568 22.0329 23.4973 22.5333 23.2631C22.4082 23.2787 22.2518 23.3099 22.2831 23.3411C22.0955 23.3255 22.0486 23.3099 22.2206 23.2475C21.5482 23.2787 21.7984 23.3568 21.1885 23.3411C21.1885 23.3099 21.3136 23.2943 21.3762 23.2631C21.0634 23.3255 20.7663 23.388 20.2503 23.3568C20.2816 23.3411 20.219 23.3099 20.3754 23.3099C19.4997 23.3255 18.8898 23.466 17.9203 23.4192C18.2018 23.2787 17.592 23.3724 17.545 23.2631L17.029 23.2943L17.2323 23.3568C16.7788 23.3568 16.3722 23.4348 15.997 23.4036L16.341 23.3568L15.4966 23.3724L15.9813 23.4192C15.5278 23.4817 16.0282 23.5597 15.434 23.5285C15.5591 23.5129 14.9805 23.5285 14.746 23.466C14.5271 23.4973 14.2925 23.5441 13.9641 23.5129C13.8703 23.4817 14.0267 23.388 13.9798 23.3568C13.7608 23.4504 12.9164 23.388 12.635 23.4817C12.7288 23.4504 12.7288 23.4036 12.6975 23.388L12.5099 23.466C12.3066 23.4348 12.2753 23.4348 12.3066 23.3724C11.6811 23.3568 12.5099 23.5129 11.7593 23.4504C11.8218 23.4504 11.7905 23.4348 11.9156 23.4192C11.1651 23.388 10.4614 23.466 9.77334 23.4348C9.57006 23.3099 10.3832 23.4036 10.1486 23.3099C9.14786 23.3255 8.08453 23.4504 7.11502 23.4192L7.28703 23.4348C7.22448 23.5129 7.03683 23.4973 6.81791 23.466C6.70845 23.4504 6.58335 23.4348 6.45825 23.4192C6.33316 23.4036 6.20806 23.4036 6.0986 23.4036C6.20806 23.4036 6.25497 23.3255 6.2237 23.3411C6.14551 23.3255 6.06732 23.3255 5.98914 23.3255C5.91095 23.3099 5.83277 23.3099 5.75458 23.2943C5.67639 23.2787 5.58257 23.2787 5.50438 23.2631C5.4262 23.2475 5.33238 23.2318 5.23855 23.2162C5.05091 23.185 4.8789 23.1226 4.67561 23.0601C4.58179 23.0289 4.47233 22.982 4.37851 22.9508C4.26904 22.904 4.15958 22.8728 4.06576 22.8103L4.19086 22.8415C4.03449 22.7166 3.8312 22.6073 3.62792 22.4512C3.42464 22.3107 3.25263 22.1233 3.09625 21.9828C2.98679 21.9204 2.83042 21.7486 2.87733 21.8891C2.54895 21.3427 2.22057 20.8587 1.97037 20.3435C1.73582 19.8283 1.56381 19.2506 1.67327 18.6885C1.67327 18.8134 1.72018 19.0008 1.72018 18.8915C1.6889 18.5948 1.67327 18.2514 1.65763 17.9235C1.57944 18.0016 1.61072 18.0484 1.56381 18.2514C1.51689 18.1265 1.48562 17.8454 1.48562 17.6112C1.53253 18.0484 1.59508 17.6112 1.64199 17.4239C1.62636 17.4551 1.59508 17.3927 1.57944 17.4083C1.70454 16.8931 1.43871 17.3302 1.51689 16.6276L1.54817 16.6589C1.53253 16.3934 1.48562 16.1592 1.48562 15.8782C1.56381 15.7689 1.51689 16.1592 1.59508 16.1749C1.59508 15.7845 1.43871 15.3942 1.51689 15.0351C1.53253 15.2069 1.54817 15.4411 1.56381 15.6128C1.65763 15.2225 1.64199 15.1756 1.65763 14.8946V14.9258L1.70454 14.2545L1.67327 14.4262C1.45435 13.9266 1.62636 13.4114 1.48562 12.7557C1.62636 13.3958 1.56381 12.8649 1.65763 12.9118C1.6889 12.74 1.72018 12.4902 1.73582 12.5527C1.65763 12.2404 1.79836 12.0219 1.6889 11.5847C1.72018 11.5691 1.6889 11.2412 1.76709 11.3193C1.73582 10.9133 1.72018 11.413 1.67327 11.3817C1.62636 11.0695 1.65763 10.6948 1.67327 10.2888C1.67327 10.1952 1.6889 10.0859 1.6889 9.97658C1.70454 9.8829 1.70454 9.77361 1.70454 9.66432C1.70454 9.61749 1.70454 9.55503 1.70454 9.5082C1.70454 9.46136 1.72018 9.39891 1.72018 9.35207C1.73582 9.24278 1.73582 9.13349 1.73582 9.0242C1.76709 8.83685 1.78273 8.69633 1.79836 8.55582C1.82964 8.43091 1.84528 8.32162 1.86091 8.21233C1.87655 8.14988 1.87655 8.10304 1.89219 8.04059C1.90783 7.97814 1.92346 7.9313 1.9391 7.86885C1.98601 7.74395 2.01729 7.60343 2.11111 7.44731C2.28312 7.25995 2.09547 7.66589 2.11111 7.66589C2.22057 7.50976 2.33003 7.36924 2.40822 7.22873C2.50204 7.10383 2.59586 6.9477 2.68969 6.80718C2.65841 6.88525 2.7366 6.83841 2.83042 6.77596C3.01807 6.55738 2.87733 6.54176 3.19008 6.32319C3.1588 6.38564 3.14317 6.49493 3.06498 6.60422C3.17444 6.47931 3.2839 6.35441 3.409 6.22951C3.5341 6.12022 3.65919 5.9797 3.79993 5.88603C3.86248 5.88603 3.81557 5.93287 3.76865 5.9797C3.7061 6.04215 3.64356 6.12022 3.59664 6.16706C3.67483 6.10461 3.75302 6.02654 3.84684 5.96409C3.94066 5.90164 4.03449 5.82358 4.12831 5.76112C4.31596 5.63622 4.47233 5.54254 4.51924 5.48009L4.26904 5.55816C4.39414 5.49571 4.36287 5.58938 4.28468 5.65183C4.14395 5.74551 4.03449 5.80796 3.9563 5.83919C3.87811 5.87041 3.81557 5.8548 3.79993 5.8548L4.00321 5.69867C3.84684 5.68306 3.61228 5.82358 3.409 6.02654C3.29954 6.12022 3.20571 6.24512 3.09625 6.35441C3.04934 6.41686 3.00243 6.4637 2.95552 6.51054C2.90861 6.57299 2.8617 6.61983 2.83042 6.66667L2.87733 6.41686C2.78351 6.57299 2.68969 6.72912 2.59586 6.88525C2.50204 6.9477 2.39258 6.97892 2.53331 6.76034C2.39258 6.88525 2.34567 6.96331 2.31439 7.04137C2.28312 7.10382 2.23621 7.16628 2.12675 7.29118C2.09547 7.3224 2.09547 7.29118 2.11111 7.25995C2.0642 7.36924 2.00165 7.47853 1.95474 7.60343C1.97037 7.52537 1.84528 7.61905 1.97037 7.41608C1.9391 7.44731 1.92346 7.47853 1.89219 7.50976C1.87655 7.54098 1.84528 7.57221 1.82964 7.61905C1.79836 7.6815 1.76709 7.75956 1.73582 7.82201C1.70454 7.88446 1.67327 7.94692 1.65763 8.00937C1.64199 8.07182 1.62636 8.11866 1.61072 8.18111C1.57944 8.2904 1.56381 8.38407 1.53253 8.46214C1.51689 8.5402 1.48562 8.61827 1.43871 8.66511V8.60265C1.34489 9.05543 1.37616 9.08665 1.40743 9.08665C1.43871 9.08665 1.48562 9.05543 1.48562 9.39891C1.3918 9.53942 1.31361 9.69555 1.21979 9.85168L1.31361 9.94536C1.31361 10.039 1.29797 10.2264 1.2667 10.1952C1.32925 10.5386 1.31361 10.1327 1.37616 10.3357C1.28234 10.7884 1.42307 11.5847 1.2667 11.694C1.34489 11.8501 1.32925 11.2568 1.37616 11.7408C1.21979 11.8813 1.40743 12.3029 1.32925 12.7088C1.25106 12.5839 1.28234 12.1936 1.21979 12.5995C1.36052 12.8493 1.18851 13.4114 1.21979 13.7549C1.32925 13.7705 1.2667 14.5199 1.29797 15.0976C1.2667 15.0664 1.23542 16.2061 1.18851 16.7525L1.17288 16.7369C1.28234 16.8462 1.2667 17.4083 1.28234 17.8142C1.21979 17.7986 1.18851 17.7205 1.15724 17.5019V17.8923C1.18851 17.9859 1.21979 18.1108 1.21979 18.345L1.1416 18.2514C1.1416 18.3763 1.1416 18.5012 1.15724 18.6417C1.17288 18.7822 1.18851 18.9227 1.20415 19.0632C1.25106 19.3443 1.29797 19.6409 1.37616 19.9844C1.42307 19.9844 1.43871 19.8439 1.48562 19.7814C1.53253 19.719 1.57944 19.7502 1.6889 20.0624C1.65763 20.0937 1.59508 20.1561 1.53253 19.9688C1.54817 20 1.56381 20.0468 1.59508 20.1093C1.62636 20.1717 1.64199 20.2342 1.65763 20.2966C1.61072 20.2186 1.54817 20.1405 1.50126 20.0468C1.56381 20.3435 1.61072 20.1874 1.6889 20.4059C1.62636 20.4215 1.70454 20.5933 1.65763 20.5777C1.62636 20.5152 1.61072 20.3591 1.54817 20.281C1.56381 20.3435 1.59508 20.4215 1.61072 20.484C1.62636 20.5152 1.62636 20.5621 1.64199 20.5933C1.65763 20.6245 1.65763 20.6557 1.67327 20.687C1.72018 20.8119 1.75145 20.9212 1.75145 20.9836C1.76709 20.968 1.78273 20.9524 1.814 20.968C1.84528 20.9836 1.87655 21.0304 1.9391 21.1085C2.22057 21.5613 1.95474 21.3115 2.11111 21.5769C2.22057 21.655 2.39258 21.9672 2.47076 21.9048C2.58023 22.014 2.56459 22.0765 2.58023 22.139C2.67405 22.2326 2.92424 22.4512 3.11189 22.6073C3.31517 22.7479 3.47155 22.8415 3.37772 22.701L3.33081 22.6542C3.34645 22.6542 3.36209 22.6698 3.36209 22.6698C3.54973 22.7947 3.75302 22.8884 3.94066 23.0133C4.03449 23.0757 4.14395 23.1226 4.23777 23.1694C4.34723 23.2162 4.44105 23.2787 4.55051 23.3255L4.86326 23.466C4.97272 23.4973 5.08218 23.5285 5.19164 23.5597L5.36365 23.6066C5.4262 23.6222 5.47311 23.6222 5.53566 23.6378C5.64512 23.6534 5.75458 23.669 5.86404 23.6846V23.7158C6.41134 23.7315 7.02119 23.7158 7.39649 23.6534C7.55286 23.6534 7.75614 23.7158 7.6936 23.7471C8.08453 23.7315 8.13144 23.6846 8.69438 23.7471C8.30345 23.7939 8.83511 23.7939 8.28781 23.7939C8.80384 23.8251 8.9133 23.872 9.4606 23.7783C9.27295 23.8564 9.85153 23.872 10.0861 23.8564L9.72643 23.7939C10.0079 23.7783 10.2425 23.7939 10.477 23.7939L10.3519 23.9032C11.3996 24.0281 12.244 23.6846 13.0415 23.9032C13.323 23.8251 12.4786 23.8564 12.7131 23.7627C13.1979 23.7783 13.6983 23.9188 13.8547 23.9188C14.5114 23.9813 14.4645 23.7627 15.1682 23.8095C15.0744 23.7783 14.9962 23.669 15.5122 23.6378C15.997 23.6534 16.1064 23.7939 15.7937 23.8251C15.6842 23.8251 15.6217 23.8095 15.6217 23.8095C15.4653 23.8251 15.262 23.8407 15.4497 23.872L15.5122 23.8407C15.7468 23.872 16.4192 23.872 16.2628 23.9344C16.6224 23.9032 16.4192 23.872 16.1533 23.8564C16.7788 23.9032 17.1228 23.8564 17.764 23.8876C17.6701 23.872 17.5763 23.8251 17.6701 23.8251C18.6084 23.872 18.0767 23.7471 18.7178 23.7315C19.0775 23.7939 18.5927 23.872 19.2182 23.8251C19.6092 23.8564 19.2964 23.9188 19.14 23.95C19.7186 23.872 20.219 23.9969 20.563 24.0125L20.2503 24.0437C20.4379 24.0281 20.5787 24.0281 20.735 24.0281L20.563 23.95C20.735 23.9656 20.8914 23.9656 20.8914 23.9969C21.0791 23.95 20.7507 23.872 21.1103 23.8095C21.3449 23.8407 21.8453 23.7627 21.9235 23.872C21.1729 23.8407 22.0016 23.9657 21.3762 23.9813C21.5013 23.9657 21.642 23.9657 21.8296 23.9813C21.8609 23.9969 21.7984 23.9969 21.7515 24.0125C22.4708 24.1062 22.0798 23.9032 22.8304 23.9032C22.7366 23.9657 23.0024 24.0125 23.1275 23.9969C22.8304 23.9969 22.9868 23.9032 23.2526 23.8564C23.7374 23.9032 23.7687 23.8251 24.0188 23.8251L23.7374 23.8095C23.8312 23.7471 24.0814 23.7627 24.4098 23.7471C24.4411 23.7939 24.1127 23.7783 24.2221 23.7939C24.5974 23.7002 25.0665 23.8876 25.5826 23.8251C25.8171 23.8564 25.5982 23.9344 25.8171 23.95C26.3957 23.872 26.4426 24.0281 27.0525 23.9656C26.8805 23.8876 26.8492 23.9032 27.2714 23.8407L26.2706 23.8876L26.9117 23.7783C26.6146 23.7783 26.2706 23.8251 26.0986 23.8095C26.4113 23.7471 26.3801 23.7627 26.2237 23.7002C26.6303 23.8095 27.0368 23.6378 27.5216 23.7158L27.5059 23.9032C28.2253 23.9813 28.7882 23.8095 29.7108 23.8564L29.4137 23.8251C29.5388 23.7471 29.9923 23.8095 30.2894 23.7783C30.2581 23.8407 30.4457 23.8564 30.5865 23.9032C30.5708 23.8564 31.2745 23.9032 31.3527 23.7783L31.7749 23.8564C32.5255 23.8876 32.635 23.6846 33.3543 23.7002C33.1353 23.7627 33.4637 23.8095 32.979 23.8564C33.2135 23.8564 33.4324 23.872 33.4481 23.8251C33.5888 23.8564 34.1205 23.7471 34.3394 23.7939C34.4489 23.7627 34.4801 23.7002 34.746 23.7002C34.7773 23.7158 34.746 23.7315 34.746 23.7315C34.746 23.7002 35.1682 23.6846 34.9336 23.6222C35.6842 23.8095 37.0134 23.6066 37.6545 23.7783C38.1862 23.7627 38.8117 23.7315 39.2964 23.7315C39.2651 23.7471 39.2964 23.7627 39.2026 23.7627C39.8593 23.8251 39.6092 23.5909 40.3597 23.6534C40.7507 23.7471 39.9532 23.7002 40.2034 23.7471C40.3128 23.95 41.1103 23.7158 41.6107 23.8407L41.4856 23.8564C41.8765 23.9188 42.4239 23.7783 43.065 23.7939C43.065 23.7939 43.0337 23.8095 43.065 23.8251C43.5028 23.7158 44.316 23.6846 44.9258 23.6534C44.7382 23.7315 44.6443 23.7002 44.7694 23.7783C45.0353 23.7627 44.6912 23.6534 45.2386 23.6222C45.4106 23.669 45.8015 23.7002 45.864 23.7939H45.348C45.6138 23.9032 46.0048 23.7939 46.2862 23.8095L46.255 23.8564C47.0368 23.8407 47.0525 23.7158 47.8969 23.7315L47.8031 23.7002C48.2722 23.5753 48.194 23.7627 48.6475 23.6846L48.7882 23.8095C49.0853 23.7783 49.8515 23.6846 50.3988 23.669C50.0861 23.7627 49.445 23.8095 49.054 23.8564C49.3511 23.8564 50.0861 23.8407 50.2425 23.7939C50.1174 23.8095 49.961 23.8407 49.8515 23.8095C50.2268 23.7158 50.7116 23.669 51.3058 23.669C51.2589 23.7939 51.6498 23.8095 52.1033 23.8095C52.3378 23.8095 52.5724 23.8251 52.807 23.8095C52.9164 23.8095 53.0259 23.8251 53.1197 23.8251C53.2135 23.8251 53.2917 23.8251 53.3543 23.8407C53.9016 23.7158 54.4489 23.5597 54.9805 23.2943C55.5122 23.0445 56.0282 22.701 56.4817 22.217C56.0282 22.4356 56.7319 21.936 56.5443 21.8579C56.7163 21.6081 56.7788 21.5301 56.8101 21.5144C57.0134 21.2802 57.201 21.0461 57.3574 20.7806C57.4981 20.6089 57.2636 21.0617 57.3261 21.0617C57.6389 20.4528 57.5294 20.8431 57.7483 20.4372C57.6545 20.4996 57.7483 20.1874 57.8578 19.8126C57.7796 19.9844 57.7171 20.1561 57.6232 20.3123C57.6389 20.2498 57.6545 20.203 57.6701 20.1561C57.6858 20.1093 57.6858 20.0624 57.7014 20.0156C57.7171 19.9219 57.7483 19.8595 57.764 19.797C57.7796 19.7346 57.8109 19.6721 57.8265 19.6253C57.8421 19.5785 57.8578 19.516 57.8734 19.4692C57.9047 19.3755 57.9516 19.2662 57.9672 19.1413C57.9829 19.0008 57.9985 18.829 57.9829 18.5948L58.0298 18.9071C58.0298 18.7822 58.0298 18.5948 58.0298 18.4231C58.0298 18.2358 58.0142 18.0328 58.0142 17.8142C57.9985 17.3927 57.9672 16.9711 57.8891 16.7525C57.9047 16.6745 57.9672 16.5652 57.9829 16.7681C57.9985 15.6753 57.8265 14.3482 57.9203 13.4895L57.9672 13.5675C57.9516 13.3646 57.8734 13.2084 57.9203 12.9586C57.936 12.9742 57.9672 13.0367 57.9672 12.943C57.9516 12.8337 57.8891 12.3966 57.9203 12.1311L57.9672 12.3653C58.0298 11.3037 57.8421 10.7416 57.7952 9.83606C57.8578 9.83606 57.9047 9.61749 57.9047 9.33646C57.9047 9.19594 57.8891 9.03981 57.8734 8.8993C57.8421 8.75878 57.8109 8.61827 57.7952 8.50898L57.8109 8.52459C57.6389 7.86885 57.3418 7.36924 56.9977 6.93208C56.6537 6.49493 56.2472 6.13583 55.7468 5.79235C55.4966 5.49571 54.9493 5.13661 54.2769 4.90242C53.9485 4.77752 53.5888 4.69945 53.2292 4.65262C53.0572 4.62139 52.8695 4.62139 52.7131 4.59016C52.5411 4.57455 52.3848 4.57455 52.244 4.55894C52.416 4.59016 52.2128 4.66823 52.0095 4.68384C51.7436 4.65262 51.2589 4.77752 51.3058 4.65262H51.3996C51.1963 4.52771 50.649 4.55894 50.2112 4.55894L50.133 4.73068C49.0071 4.49649 47.1776 4.82436 46.5521 4.60578C46.2862 4.65262 45.9422 4.65262 45.6764 4.68384L45.692 4.59016C44.9414 4.57455 44.5662 4.55894 43.6279 4.57455L43.8156 4.5121C43.2839 4.5121 43.1588 4.76191 42.6584 4.77752L42.5177 4.65262C41.5951 4.65262 40.6725 4.54333 39.7655 4.65262C39.7812 4.637 39.8124 4.59016 39.9532 4.59016C39.5153 4.59016 38.28 4.49649 38.4364 4.68384C38.4207 4.55894 37.4825 4.66823 36.9977 4.73068L37.0759 4.637C36.6537 4.74629 36.6381 4.77752 36.0595 4.80874C35.9188 4.79313 35.9344 4.74629 36.1221 4.76191C35.6529 4.71507 35.7624 4.83997 35.1995 4.79313L35.4027 4.73068C34.9336 4.73068 34.9649 4.74629 34.6991 4.82436C34.402 4.85558 33.7921 4.80874 33.7296 4.73068C33.667 4.77752 33.4012 4.83997 33.1197 4.82436C33.0884 4.79313 33.1823 4.77752 33.2292 4.76191C32.4317 4.69945 32.0564 4.85558 31.5091 4.77752C31.4934 4.74629 31.4622 4.73068 31.4153 4.73068C32.0407 4.73068 32.5568 4.73068 32.5099 4.74629C32.5099 4.66823 31.9938 4.65262 32.4004 4.54333C31.9938 4.60578 31.2902 4.73068 30.7898 4.69945C30.7585 4.69945 30.7429 4.68384 30.7272 4.66823L30.7741 4.65262C30.6647 4.637 30.5552 4.65262 30.4614 4.66823C30.305 4.65262 30.1955 4.65262 30.0548 4.637C29.9923 4.57455 29.4762 4.60578 29.2104 4.60578C29.226 4.69945 28.8977 4.68384 29.2104 4.74629C29.1635 4.74629 29.2573 4.73068 29.4293 4.73068C29.4606 4.73068 29.5075 4.73068 29.5388 4.71507H29.5231C29.6952 4.71507 29.9141 4.71507 30.1486 4.71507C29.9454 4.76191 29.7421 4.79313 29.4606 4.74629C29.3355 4.80874 29.1791 4.85558 29.1009 4.88681C28.7569 4.7619 28.0845 4.69945 27.9907 4.62139C27.2088 4.66823 26.1611 4.65262 25.6764 4.82436C25.4575 4.83997 25.4262 4.77752 25.348 4.74629C25.4731 4.73068 25.6295 4.73068 25.692 4.71507C25.2542 4.76191 24.3785 4.73068 24.2847 4.83997C23.7217 4.79313 24.5974 4.73068 23.8312 4.74629L23.9407 4.71507C22.4395 4.52771 21.5013 5.01171 19.8281 4.77752C19.9375 4.79313 20.0001 4.79313 20.0314 4.82436C18.1393 4.71507 16.1221 4.91803 14.2456 4.76191C13.7139 4.73068 13.6514 4.80874 13.323 4.85558L13.2135 4.76191L12.6506 4.87119C11.8687 4.94926 11.2902 4.637 10.2894 4.79313L10.4145 4.85558C10.0548 4.83997 9.27295 4.88681 9.3355 4.82436C9.30423 4.83997 9.21041 4.88681 9.08531 4.85558L9.06967 4.80874L8.28781 4.85558C7.59977 4.82436 8.39727 4.65262 7.39649 4.65262C7.03683 4.68384 6.34879 4.80874 6.48953 4.83997C6.6459 4.83997 6.86482 4.87119 6.88046 4.91803L6.53644 4.94926C6.47389 5.08977 6.20806 5.2459 7.05247 5.33958L7.63105 5.2459L7.81869 5.32397H7.33394C7.61541 5.38642 7.78742 5.32397 7.97507 5.29274C8.02198 5.32397 8.10016 5.35519 8.22526 5.3708L8.7882 5.23029C8.85075 5.29274 8.538 5.33958 8.9133 5.3708C9.17913 5.30835 8.6631 5.2459 9.10094 5.19906C9.38241 5.26151 9.30423 5.32397 9.61697 5.26151C9.66388 5.29274 9.60134 5.32397 9.4606 5.33958C9.75771 5.29274 10.2268 5.32397 10.3832 5.2459C10.6647 5.32397 11.3527 5.23029 11.3371 5.35519C11.4309 5.32397 11.8531 5.2459 12.1189 5.2459C11.6342 5.41764 13.1197 5.26151 12.979 5.43326C13.3386 5.29274 14.2769 5.3708 14.918 5.29274C14.8867 5.30835 14.8085 5.32397 14.7616 5.32397C15.1213 5.33958 15.2307 5.38642 15.4497 5.40203C15.4966 5.27713 16.0595 5.2459 16.3566 5.18345C16.7945 5.30835 16.0908 5.32397 16.2315 5.43326C16.2159 5.33958 16.9977 5.33958 16.8414 5.2459C17.1697 5.32397 17.1385 5.27713 17.3105 5.38642C17.373 5.23029 17.6232 5.35519 17.9047 5.26151C18.3895 5.33958 18.0298 5.40203 18.5615 5.35519C18.796 5.41764 18.3269 5.46448 18.3269 5.46448ZM31.0243 5.19906C30.9149 5.19906 30.821 5.19906 30.7585 5.19906C30.821 5.21468 30.8836 5.19906 31.0243 5.19906ZM32.0877 5.19906C31.9626 5.19906 31.7905 5.19906 31.6185 5.19906C31.5873 5.16784 31.6185 5.13661 31.728 5.13661C31.6811 5.15223 31.9313 5.16784 32.0877 5.19906ZM29.8359 4.59016C30.0079 4.57455 30.0548 4.59016 30.0861 4.60578C30.0079 4.60578 29.9141 4.60578 29.789 4.62139C29.789 4.62139 29.7733 4.62139 29.7733 4.637C29.7733 4.62139 29.8046 4.60578 29.8359 4.59016Z" fill="#FF6F6F"/>
<path d="M29.523 4.69945C29.4917 4.69945 29.4917 4.69945 29.4604 4.69945C29.4917 4.69945 29.523 4.71506 29.5543 4.71506C29.5699 4.69945 29.6012 4.69945 29.6168 4.68384C29.5855 4.69945 29.5543 4.69945 29.523 4.69945Z" fill="#FF6F6F"/>
<path d="M3.42482 22.7322L3.44045 22.7479C3.42482 22.7322 3.40918 22.7166 3.40918 22.7166C3.40918 22.7322 3.40918 22.7322 3.42482 22.7322Z" fill="#FF6F6F"/>
<path d="M46.8179 5.37081V5.33958L46.7241 5.37081H46.8179Z" fill="#FF6F6F"/>
<path d="M1.61084 17.4239C1.61084 17.4083 1.62648 17.3927 1.62648 17.3458C1.62648 17.3458 1.62648 17.3771 1.61084 17.4239Z" fill="#FF6F6F"/>
<path d="M1.62646 14.8946L1.65774 14.5355C1.6421 14.6916 1.6421 14.8009 1.62646 14.8946Z" fill="#FF6F6F"/>
<path d="M1.67336 12.943C1.65773 12.9118 1.64209 12.9118 1.64209 12.9118L1.67336 12.943Z" fill="#FF6F6F"/>
<path d="M23.9565 23.2787C23.9878 23.2787 24.0035 23.2787 24.0347 23.2787C24.2067 23.2475 24.0816 23.2631 23.9565 23.2787Z" fill="#FF6F6F"/>
<path d="M14.7148 23.4817C14.8087 23.466 14.9025 23.4504 15.012 23.4348C14.8556 23.4348 14.7305 23.4348 14.7148 23.4817Z" fill="#FF6F6F"/>
<path d="M15.45 23.4348C15.278 23.4192 15.1529 23.4192 15.0278 23.4348C15.1529 23.4504 15.3093 23.4504 15.45 23.4348Z" fill="#FF6F6F"/>
<path d="M4.30029 5.77674L4.37848 5.74552V5.7299L4.30029 5.77674Z" fill="#FF6F6F"/>
<path d="M4.37842 5.71429L4.4566 5.66745C4.42533 5.68306 4.39406 5.69868 4.37842 5.71429Z" fill="#FF6F6F"/>
<path d="M4.64419 5.55816C4.58164 5.58938 4.51909 5.63622 4.45654 5.66745C4.53473 5.63622 4.61292 5.58938 4.64419 5.55816Z" fill="#FF6F6F"/>
<path d="M2.4707 7.36925L2.48634 7.41609C2.48634 7.38486 2.4707 7.36925 2.4707 7.36925Z" fill="#FF6F6F"/>
<path d="M2.11084 8.02499C2.15775 7.94692 2.2203 7.85324 2.28285 7.75957C2.36104 7.66589 2.42358 7.5566 2.48613 7.44731L2.4705 7.41608C2.45486 7.47854 2.37667 7.58783 2.28285 7.69712C2.20466 7.80641 2.12648 7.93131 2.11084 8.02499Z" fill="#FF6F6F"/>
<path d="M1.29772 11.1319L1.329 10.4762C1.29772 10.5855 1.25081 10.7416 1.23517 10.445C1.12571 11.2724 1.29772 10.2732 1.29772 11.1319Z" fill="#FF6F6F"/>
<path d="M1.2354 13.1616C1.21976 12.8025 1.18849 13.1616 1.17285 13.146C1.20413 13.3802 1.20413 13.427 1.2354 13.1616Z" fill="#FF6F6F"/>
<path d="M7.897 23.8095L7.86572 23.8876C8.13156 23.8876 7.85009 23.8564 7.897 23.8095Z" fill="#FF6F6F"/>
<path d="M10.7112 23.4036L10.4454 23.3568L10.3203 23.4192L10.7112 23.4036Z" fill="#FF6F6F"/>
<path d="M12.3692 23.9657L12.2598 23.9813L12.7132 23.95L12.3692 23.9657Z" fill="#FF6F6F"/>
<path d="M37.1383 23.9344L37.0601 23.8408C36.8725 23.8564 36.8412 23.9657 37.1383 23.9344Z" fill="#FF6F6F"/>
<path d="M47.8345 23.8407C47.9439 23.8876 48.2567 23.9188 48.4443 23.872C48.1941 23.872 47.9596 23.8251 47.8345 23.8407Z" fill="#FF6F6F"/>
<path d="M49.6637 4.57455L49.8826 4.54333L49.4761 4.57455H49.6637Z" fill="#FF6F6F"/>
<path d="M17.4827 20.0312C16.6852 20.0312 15.9815 19.8907 15.356 19.6097C14.7462 19.3287 14.2614 18.9071 13.9174 18.3763C13.5734 17.8454 13.4014 17.2053 13.4014 16.4559V16.0344H15.3247V16.4559C15.3247 17.0804 15.5124 17.5488 15.9033 17.8611C16.2943 18.1733 16.8103 18.3138 17.4827 18.3138C18.1551 18.3138 18.6555 18.1733 18.9839 17.9079C19.3122 17.6425 19.4842 17.299 19.4842 16.8931C19.4842 16.612 19.4061 16.3778 19.234 16.1905C19.0777 16.0187 18.8431 15.8626 18.5147 15.7689C18.202 15.644 17.8267 15.5347 17.3889 15.4411L17.0448 15.363C16.3255 15.2069 15.7157 15.0039 15.1996 14.7697C14.6993 14.5199 14.3083 14.2077 14.0269 13.8017C13.761 13.4114 13.6203 12.8962 13.6203 12.2561C13.6203 11.6159 13.761 11.0851 14.0581 10.6479C14.3709 10.1952 14.7931 9.85168 15.3404 9.61749C15.8877 9.36768 16.5444 9.24278 17.2794 9.24278C18.0143 9.24278 18.6711 9.36769 19.2497 9.6331C19.8283 9.88291 20.2817 10.2576 20.6101 10.7572C20.9385 11.2568 21.1105 11.8657 21.1105 12.6151V13.0523H19.1871V12.6151C19.1871 12.2248 19.109 11.897 18.9526 11.6628C18.8118 11.413 18.5929 11.2412 18.2958 11.1319C18.0143 11.007 17.6703 10.9602 17.2794 10.9602C16.6852 10.9602 16.2473 11.0695 15.9659 11.3037C15.6844 11.5223 15.5437 11.8189 15.5437 12.2092C15.5437 12.459 15.6062 12.6776 15.7313 12.865C15.872 13.0367 16.0753 13.1928 16.3412 13.3021C16.607 13.427 16.951 13.5207 17.3576 13.6144L17.7016 13.6924C18.4365 13.8486 19.0777 14.0515 19.625 14.3013C20.1723 14.5511 20.6101 14.879 20.9072 15.2849C21.2043 15.6909 21.3607 16.2061 21.3607 16.8462C21.3607 17.4863 21.2043 18.0328 20.876 18.5168C20.5632 18.9852 20.1097 19.3599 19.5155 19.6409C18.9839 19.8907 18.2958 20.0312 17.4827 20.0312ZM26.9119 20.0312C25.614 20.0312 24.5663 19.6721 23.8001 18.9696C23.0339 18.2514 22.643 17.2209 22.643 15.8938V13.3958C22.643 12.0687 23.0339 11.0383 23.8001 10.3357C24.5663 9.61749 25.614 9.2584 26.9119 9.2584C28.2098 9.2584 29.2575 9.61749 30.0237 10.3357C30.7899 11.0539 31.1809 12.0687 31.1809 13.3958V15.8782C31.1809 17.2053 30.7899 18.2358 30.0237 18.9539C29.2575 19.6721 28.2098 20.0312 26.9119 20.0312ZM26.9119 18.2826C27.6469 18.2826 28.2098 18.064 28.6164 17.6425C29.0229 17.2209 29.2262 16.6433 29.2262 15.9407V13.3333C29.2262 12.6151 29.0229 12.0531 28.6164 11.6315C28.2098 11.21 27.6469 10.9914 26.9119 10.9914C26.1926 10.9914 25.6297 11.21 25.2075 11.6315C24.8009 12.0531 24.5976 12.6308 24.5976 13.3333V15.9407C24.5976 16.6589 24.8009 17.2209 25.2075 17.6425C25.614 18.064 26.1926 18.2826 26.9119 18.2826ZM32.901 19.8283V9.46136H34.8556V18.0484H39.5937V19.8283H32.901ZM40.6414 19.8283V18.1109H42.0018V11.1788H40.6414V9.46136H44.9104C46.3021 9.46136 47.3654 9.82046 48.0847 10.523C48.8197 11.2256 49.1793 12.2717 49.1793 13.6612V15.6128C49.1793 17.0023 48.8197 18.0484 48.0847 18.7666C47.3654 19.4692 46.3021 19.8127 44.9104 19.8127H40.6414V19.8283ZM43.9565 18.0484H44.9416C45.7391 18.0484 46.3177 17.8454 46.6774 17.4239C47.037 17.0023 47.2247 16.4247 47.2247 15.6753V13.5988C47.2247 12.8337 47.037 12.2561 46.6774 11.8501C46.3177 11.4286 45.7391 11.2256 44.9416 11.2256H43.9565V18.0484Z" fill="#FF5A5A"/>
<path d="M6.45803 5.05855C6.47367 5.05855 6.50495 5.04293 6.48931 5.02732H6.42676L6.45803 5.05855Z" fill="#FF6F6F"/>
<path d="M6.47373 4.85558C6.44246 4.83997 6.37991 4.82436 6.34863 4.85558C6.41118 4.8712 6.39555 4.88681 6.45809 4.88681C6.47373 4.90242 6.45809 4.93365 6.44246 4.93365C6.45809 4.93365 6.44246 4.98048 6.48937 4.98048C6.50501 4.93365 6.48937 4.88681 6.44246 4.85558C6.44246 4.83997 6.45809 4.85558 6.47373 4.85558Z" fill="#FF6F6F"/>
<path d="M4.30029 0.983608C4.31593 0.999221 4.31593 0.999221 4.31593 0.983608C4.31593 0.983608 4.30029 0.967996 4.30029 0.983608Z" fill="#FF6F6F"/>
<path d="M5.31655 2.35753L5.30091 2.31069C5.28527 2.3263 5.30091 2.34192 5.31655 2.35753Z" fill="#FF6F6F"/>
<path d="M6.20801 4.55894L6.22364 4.57455C6.22364 4.55894 6.22364 4.55894 6.20801 4.55894Z" fill="#FF6F6F"/>
<path d="M5.72314 2.99766C5.73878 3.01327 5.73878 3.01327 5.75442 3.01327L5.72314 2.99766Z" fill="#FF6F6F"/>
<path d="M6.00444 3.49726C6.00444 3.48165 5.95753 3.49726 5.94189 3.49726C5.95753 3.49726 5.97317 3.49726 5.98881 3.51288C5.97317 3.51288 5.98881 3.51288 6.00444 3.49726Z" fill="#FF6F6F"/>
<path d="M6.31738 4.35597C6.33302 4.37158 6.31738 4.37158 6.31738 4.35597V4.35597Z" fill="#FF6F6F"/>
<path d="M5.08206 9.91413C5.06642 9.91413 5.06642 9.92974 5.05078 9.92974L5.08206 9.91413Z" fill="#FF6F6F"/>
<path d="M0.0625 2.60734C0.0937745 2.54489 0.125049 2.70101 0.156323 2.60734C0.140686 2.62295 0.0781372 2.54489 0.0625 2.60734Z" fill="#FF6F6F"/>
<path d="M6.20802 4.54332C6.20802 4.54332 6.20802 4.52771 6.19238 4.52771C6.19238 4.52771 6.20802 4.52771 6.20802 4.54332Z" fill="#FF6F6F"/>
<path d="M2.43945 0L2.45509 0.0156128C2.45509 0.0156128 2.43945 0.0156128 2.43945 0Z" fill="#FF6F6F"/>
<path d="M3.37794 0.265414L3.3623 0.249802C3.3623 0.265414 3.3623 0.265414 3.37794 0.265414Z" fill="#FF6F6F"/>
<path d="M1.93899 0.140514C1.92335 0.140514 1.92335 0.140514 1.90771 0.140514C1.92335 0.140514 1.92335 0.124902 1.93899 0.140514Z" fill="#FF6F6F"/>
<path d="M3.58107 8.35285C3.58107 8.36846 3.58107 8.38408 3.56543 8.39969C3.5967 8.36846 3.64362 8.4153 3.58107 8.35285Z" fill="#FF6F6F"/>
<path d="M2.01714 0.468384L1.95459 0.483997C1.97023 0.483997 1.98586 0.483997 2.01714 0.468384Z" fill="#FF6F6F"/>
<path d="M1.43848 5.62061C1.45443 5.63659 1.43848 5.62061 1.43848 5.62061V5.62061Z" fill="#FF6F6F"/>
<path d="M1.7515 0.562061C1.73586 0.546448 1.72023 0.546448 1.70459 0.546448V0.562061H1.7515Z" fill="#FF6F6F"/>
<path d="M4.01878 8.68072C3.97187 8.63388 3.95623 8.69633 3.92495 8.71195C3.84677 8.66511 3.92495 8.6495 3.92495 8.61827C3.87804 8.58704 3.79986 8.60266 3.78422 8.57143C3.78422 8.55582 3.78422 8.55582 3.79986 8.55582C3.72167 8.55582 3.67476 8.43092 3.58094 8.43092V8.4153C3.5653 8.44653 3.54966 8.46214 3.53402 8.47775C3.50275 8.46214 3.47147 8.46214 3.48711 8.43092C3.50275 8.44653 3.51839 8.43092 3.53402 8.43092L3.50275 8.4153C3.51839 8.35285 3.54966 8.43092 3.58094 8.39969C3.51839 8.36847 3.42456 8.33724 3.40893 8.2904C3.4402 8.24356 3.50275 8.36847 3.48711 8.27479L3.53402 8.35285C3.54966 8.24356 3.5653 8.38408 3.58094 8.2904C3.51839 8.21234 3.48711 8.22795 3.42456 8.13427C3.39329 8.13427 3.39329 8.1655 3.36201 8.18111C3.22128 8.10305 3.37765 8.00937 3.25255 7.97815C3.20564 7.97815 3.14309 8.02498 3.12746 7.93131L3.19 7.91569C3.12746 7.83763 3.08054 7.93131 3.04927 7.82202C3.08054 7.82202 3.11182 7.86886 3.11182 7.85324C3.09618 7.77518 3.04927 7.83763 3.018 7.8064L3.04927 7.75957C2.97108 7.6815 2.86162 7.61905 2.78344 7.54099C2.79907 7.54099 2.83035 7.54099 2.81471 7.50976C2.68961 7.41608 2.61143 7.25996 2.54888 7.11944L2.47069 7.10383C2.47069 7.08822 2.47069 7.0726 2.48633 7.0726C2.47069 7.01015 2.45506 7.08822 2.42378 7.0726C2.40814 7.05699 2.42378 7.02576 2.43942 7.02576C2.34559 6.97893 2.20486 6.85402 2.17359 6.72912L2.18922 6.74473C2.15795 6.66667 2.06413 6.72912 2.04849 6.63544H2.06413C1.9703 6.47932 1.82957 6.3388 1.81393 6.18267C1.75138 6.19829 1.73574 6.02654 1.65756 6.05777C1.64192 5.94848 1.67319 5.96409 1.62628 5.82358C1.61065 5.79235 1.5481 5.80797 1.51682 5.77674L1.56373 5.74551L1.48555 5.71429L1.51682 5.65184L1.48555 5.62061C1.48555 5.63622 1.48555 5.66745 1.46991 5.66745C1.423 5.62061 1.423 5.49571 1.43864 5.49571L1.32918 5.37081C1.34481 5.37081 1.36045 5.38642 1.39172 5.40203C1.2979 5.35519 1.423 5.37081 1.34481 5.30836C1.34481 5.32397 1.31354 5.32397 1.31354 5.32397C1.31354 5.27713 1.28226 5.19907 1.23535 5.13662H1.26663C1.21972 5.02733 1.14153 4.91804 1.07898 4.79313C1.07898 4.83997 1.03207 4.85559 1.00079 4.82436L1.04771 4.79313C1.00079 4.77752 1.04771 4.83997 0.985157 4.80875C0.96952 4.76191 1.01643 4.7463 1.04771 4.77752L1.00079 4.73068C1.01643 4.71507 1.03207 4.73068 1.04771 4.73068C1.00079 4.71507 1.04771 4.62139 0.985157 4.60578L1.00079 4.59017C0.953882 4.46526 0.906971 4.41843 0.860059 4.30914C0.813147 4.32475 0.813148 4.27791 0.766236 4.2623C0.750599 4.18423 0.750599 4.09056 0.719324 3.99688C0.672413 3.93443 0.672413 3.99688 0.641138 3.96566C0.672413 3.95004 0.641138 3.85637 0.68805 3.9032C0.641138 3.79391 0.625501 3.76269 0.562952 3.62217C0.547315 3.63779 0.547315 3.66901 0.531678 3.6534C0.51604 3.62217 0.531678 3.59095 0.547315 3.59095C0.437854 3.43482 0.578589 3.20063 0.469129 3.09134L0.422217 2.96644C0.422217 2.90398 0.453492 2.99766 0.469129 2.95082C0.375305 2.81031 0.469129 2.71663 0.40658 2.60734C0.51604 2.51366 0.40658 2.27947 0.500403 2.17018L0.469129 2.1858C0.437854 2.15457 0.484766 2.15457 0.500403 2.12334C0.484766 2.12334 0.469129 2.15457 0.453492 2.13896C0.469129 1.85793 0.625501 1.60812 0.781873 1.40516C0.844422 1.32709 0.68805 1.28025 0.813147 1.2178L0.828785 1.28025C0.860059 1.18658 0.922608 1.0929 1.00079 1.03045C1.03207 0.999222 1.06334 0.967997 1.11025 0.936771C1.14153 0.905546 1.18844 0.87432 1.21972 0.827482C1.21972 0.843094 1.21972 0.858707 1.20408 0.87432C1.25099 0.87432 1.31354 0.780643 1.31354 0.749418C1.32918 0.733805 1.32918 0.76503 1.36045 0.780643C1.40736 0.780643 1.423 0.686966 1.46991 0.702579C1.46991 0.702579 1.46991 0.718192 1.45427 0.718192C1.45427 0.686966 1.56373 0.655741 1.51682 0.640128C1.59501 0.624515 1.64192 0.562064 1.70447 0.562064C1.72011 0.499613 1.82957 0.530838 1.81393 0.468387C1.82957 0.499613 1.86084 0.499613 1.89212 0.484C1.92339 0.468387 1.9703 0.452774 1.98594 0.421549C1.9703 0.452774 2.03285 0.437161 2.01721 0.468387C2.06412 0.452774 2.11104 0.437162 2.0954 0.390323C2.15795 0.421549 2.18922 0.390323 2.23613 0.37471C2.28305 0.359097 2.31432 0.343485 2.34559 0.390323C2.48633 0.343485 2.6427 0.327872 2.78344 0.327872C2.7678 0.390323 2.62706 0.312259 2.62706 0.390323C2.68961 0.390323 2.75216 0.37471 2.79907 0.359097C2.84599 0.359097 2.90853 0.359097 2.97108 0.37471C3.00236 0.390323 2.93981 0.390323 2.92417 0.405936C2.98672 0.405936 3.04927 0.437162 3.11182 0.452774C3.17437 0.468387 3.22128 0.499613 3.28383 0.515225C3.28383 0.515225 3.26819 0.515225 3.25255 0.515225C3.26819 0.530838 3.29947 0.546451 3.3151 0.515225C3.29947 0.515225 3.29947 0.515225 3.28383 0.515225C3.28383 0.484 3.42456 0.499613 3.4402 0.484C3.36201 0.546451 3.53402 0.562064 3.42456 0.640128C3.4402 0.640128 3.47147 0.640128 3.47147 0.624515C3.48711 0.640128 3.48711 0.655741 3.45584 0.671354C3.53402 0.702579 3.53402 0.655741 3.59657 0.702579C3.58094 0.718192 3.5653 0.718192 3.54966 0.718192C3.59657 0.718192 3.65912 0.702579 3.6904 0.76503C3.67476 0.76503 3.67476 0.780643 3.65912 0.76503C3.75294 0.827482 3.86241 0.827482 3.94059 0.936771C3.86241 0.967997 3.95623 0.98361 3.92495 1.03045C3.94059 1.04606 3.97187 1.04606 3.9875 1.06167V1.01484C4.03441 1.06167 4.09696 1.06167 4.12824 1.10851L4.09696 1.0929L4.19079 1.17096L4.15951 1.10851C4.22206 1.12412 4.20642 1.04606 4.25334 1.12412C4.2377 1.10851 4.30025 1.17096 4.28461 1.2178C4.31588 1.23341 4.34716 1.23341 4.37843 1.28025C4.37843 1.29587 4.33152 1.31148 4.31588 1.32709C4.37843 1.31148 4.42534 1.42077 4.48789 1.40516C4.47226 1.40516 4.44098 1.42077 4.44098 1.43638H4.48789C4.50353 1.46761 4.48789 1.46761 4.47226 1.48322C4.51917 1.54567 4.51917 1.42077 4.55044 1.51444C4.55044 1.51444 4.53481 1.51444 4.51917 1.51444C4.56608 1.60812 4.6599 1.65496 4.70681 1.73302C4.67554 1.79548 4.64427 1.67057 4.62863 1.73302C4.72245 1.8267 4.84755 1.92038 4.9101 2.02967L4.89446 1.99844C4.97265 1.96722 4.9101 2.10773 4.98828 2.13896C4.97265 2.12334 4.94137 2.13896 4.94137 2.13896C4.97265 2.21702 5.05083 2.27947 5.14466 2.38876H5.11338C5.12902 2.45121 5.17593 2.51366 5.19157 2.5605C5.22284 2.5605 5.23848 2.59173 5.25412 2.5605C5.23848 2.77908 5.47304 2.82592 5.47304 3.01327C5.4574 2.99766 5.44176 2.98205 5.44176 2.99766L5.51995 3.10695C5.55122 3.07573 5.53559 3.07573 5.53559 3.0445C5.56686 3.0445 5.59814 3.07573 5.61377 3.10695C5.56686 3.06011 5.56686 3.13818 5.55122 3.1694C5.55122 3.15379 5.56686 3.1694 5.5825 3.15379C5.55122 3.24747 5.64505 3.12256 5.66068 3.23185H5.64505C5.67632 3.26308 5.7076 3.27869 5.72323 3.30992C5.69196 3.34114 5.69196 3.27869 5.66068 3.2943C5.69196 3.34114 5.78578 3.35676 5.77015 3.41921C5.75451 3.40359 5.73887 3.37237 5.7076 3.35676C5.69196 3.41921 5.7076 3.41921 5.7076 3.46605L5.72323 3.55972V3.5285C5.84833 3.54411 5.80142 3.63779 5.91088 3.70024C5.81706 3.6534 5.86397 3.70024 5.81706 3.71585C5.81706 3.74708 5.81706 3.7783 5.80142 3.7783C5.84833 3.79391 5.80142 3.85637 5.87961 3.88759C5.86397 3.9032 5.89524 3.93443 5.86397 3.93443C5.89524 3.98127 5.87961 3.91882 5.89524 3.9032C5.97343 3.96566 5.92652 4.10617 6.03598 4.19985C6.11416 4.27791 6.16108 4.27791 6.22362 4.35598C6.20799 4.40281 6.16108 4.35598 6.16108 4.35598C6.16108 4.41843 6.17671 4.44965 6.22362 4.49649C6.20799 4.49649 6.20799 4.5121 6.19235 4.52772C6.20799 4.55894 6.2549 4.52772 6.2549 4.59017C6.23926 4.59017 6.20799 4.59017 6.17671 4.57455C6.20799 4.60578 6.2549 4.65262 6.28617 4.68384C6.27054 4.69946 6.23926 4.66823 6.20799 4.66823C6.23926 4.71507 6.28617 4.79313 6.33309 4.79313V4.7463C6.34872 4.76191 6.30181 4.77752 6.28617 4.76191C6.23926 4.73068 6.27054 4.69946 6.28617 4.68384L6.30181 4.71507C6.36436 4.65262 6.22362 4.59017 6.20799 4.52772H6.28617L6.20799 4.48088C6.22362 4.46526 6.23926 4.43404 6.27054 4.46526C6.28617 4.40281 6.22362 4.43404 6.23926 4.37159C6.23926 4.37159 6.23926 4.37159 6.2549 4.37159L6.22362 4.34036C6.23926 4.34036 6.2549 4.30914 6.27054 4.34036C6.27054 4.24669 6.16108 4.23107 6.19235 4.16862C6.11416 4.05933 6.14544 4.18423 6.05162 4.12178L6.1298 4.01249L6.08289 4.02811C6.08289 4.01249 6.06725 3.99688 6.08289 3.98127C6.03598 3.95004 6.06725 3.99688 6.02034 3.98127C6.03598 3.9032 5.92652 3.84075 5.98907 3.79391C5.94215 3.79391 5.98907 3.85637 5.94215 3.80953C6.0047 3.76269 5.89524 3.74708 5.91088 3.68462C5.95779 3.68462 5.95779 3.74708 5.97343 3.66901C5.89524 3.66901 5.94215 3.55972 5.91088 3.5285C5.86397 3.54411 5.84833 3.45043 5.78578 3.38798C5.80142 3.38798 5.73887 3.23185 5.72323 3.1694H5.73887C5.67632 3.18501 5.66069 3.10695 5.61377 3.06011C5.64505 3.0445 5.66069 3.0445 5.69196 3.07573L5.66068 3.02889C5.64505 3.02889 5.62941 3.01327 5.59814 2.98205L5.64505 2.96644C5.61377 2.90398 5.53559 2.87276 5.51995 2.77908C5.48868 2.79469 5.4574 2.90398 5.39485 2.82592C5.41049 2.81031 5.44176 2.79469 5.4574 2.81031C5.4574 2.81031 5.42613 2.79469 5.42613 2.77908L5.47304 2.79469C5.47304 2.74786 5.44176 2.79469 5.42613 2.76347C5.4574 2.74786 5.42613 2.73224 5.4574 2.71663C5.4574 2.71663 5.4574 2.74786 5.47304 2.74786C5.4574 2.71663 5.4574 2.66979 5.47304 2.63857C5.4574 2.65418 5.44176 2.65418 5.42613 2.63857C5.39485 2.57612 5.44176 2.59173 5.44176 2.5605C5.41049 2.5605 5.41049 2.51366 5.36358 2.52928C5.34794 2.51366 5.36358 2.49805 5.37922 2.48244C5.34794 2.46683 5.28539 2.34192 5.26975 2.40437V2.41999C5.17593 2.34192 5.16029 2.20141 5.08211 2.10773L5.09774 2.09212C5.05083 2.04528 5.00392 1.96722 4.94137 1.93599C4.92574 1.92038 4.94137 1.87354 4.95701 1.87354C4.9101 1.84231 4.89446 1.84231 4.87882 1.76425C4.92574 1.79548 4.89446 1.73302 4.92574 1.79548C4.89446 1.73302 4.9101 1.7018 4.83191 1.67057C4.87882 1.67057 4.84755 1.59251 4.81628 1.5769V1.63935C4.785 1.60812 4.76936 1.5769 4.75373 1.56128L4.84755 1.51444C4.80064 1.35832 4.59735 1.37393 4.61299 1.2178C4.56608 1.2178 4.64427 1.29587 4.59735 1.29587C4.53481 1.24903 4.55044 1.13974 4.53481 1.12412C4.48789 1.03045 4.42534 1.10851 4.3628 1.03045C4.3628 1.04606 4.33152 1.0929 4.26897 1.06167C4.22206 1.01484 4.26897 0.952384 4.30025 0.967997C4.31588 0.98361 4.31588 0.98361 4.31588 0.999222C4.33152 1.01484 4.3628 1.03045 4.3628 0.999222H4.34716C4.33152 0.967997 4.26897 0.905546 4.30025 0.889933C4.25334 0.858707 4.26897 0.889933 4.28461 0.936771C4.2377 0.858707 4.19079 0.843094 4.12824 0.76503C4.12824 0.780643 4.12824 0.811869 4.1126 0.796256C4.03441 0.686966 4.05005 0.780643 3.97187 0.733805C3.95623 0.686966 4.03441 0.686966 3.94059 0.655741C3.90932 0.608902 3.95623 0.608902 3.9875 0.608902C3.89368 0.59329 3.87804 0.499613 3.84677 0.468387C3.86241 0.468387 3.87804 0.484 3.89368 0.484C3.8624 0.468387 3.84677 0.468387 3.83113 0.452774V0.499613C3.81549 0.484 3.79986 0.468387 3.79986 0.452774C3.76858 0.452774 3.78422 0.515225 3.72167 0.515225C3.70603 0.484 3.62785 0.468387 3.64348 0.421549C3.72167 0.499613 3.65912 0.37471 3.73731 0.421549C3.72167 0.421549 3.70603 0.405936 3.67476 0.390323H3.6904C3.62785 0.296646 3.61221 0.405936 3.53402 0.359097C3.5653 0.343485 3.53402 0.296646 3.51839 0.296646C3.54966 0.312259 3.51839 0.343485 3.47147 0.343485C3.42456 0.296646 3.39329 0.327872 3.36201 0.312259L3.39329 0.343485C3.36201 0.359098 3.34638 0.343485 3.29947 0.327872C3.29947 0.312259 3.34638 0.327872 3.33074 0.312259C3.26819 0.327872 3.23692 0.218582 3.15873 0.218582C3.12746 0.187357 3.17437 0.171744 3.14309 0.140518C3.04927 0.140518 3.06491 0.078067 2.97108 0.078067C2.98672 0.124905 2.98672 0.109293 2.92417 0.140518C2.97108 0.140518 3.018 0.140518 3.08054 0.156131C3.04927 0.156131 3.00236 0.171744 2.97108 0.187357C3.018 0.202969 3.06491 0.187357 3.09618 0.202969C3.04927 0.218582 3.04927 0.202969 3.06491 0.249808C3.018 0.171744 2.93981 0.249808 2.8929 0.202969L2.90853 0.109293C2.86162 0.078067 2.81471 0.078067 2.75216 0.0936798C2.70525 0.109293 2.6427 0.109293 2.58015 0.0936798L2.62706 0.109293C2.61143 0.140518 2.54888 0.109293 2.50197 0.124905C2.50197 0.0936798 2.48633 0.078067 2.45506 0.0624542C2.45506 0.078067 2.34559 0.0624542 2.34559 0.124905L2.28305 0.0936798C2.15795 0.0468414 2.15795 0.156131 2.06413 0.156131C2.0954 0.124905 2.03285 0.109293 2.0954 0.0624542C2.06412 0.0624542 2.03285 0.0624542 2.03285 0.0936798C2.00158 0.078067 1.95466 0.156131 1.90775 0.140518C1.89212 0.156131 1.90775 0.187357 1.86084 0.202969V0.187357C1.86084 0.202969 1.81393 0.218582 1.8452 0.249808C1.72011 0.187357 1.57937 0.359097 1.46991 0.327872C1.40736 0.359097 1.32918 0.421549 1.28226 0.452774C1.28226 0.437162 1.28226 0.437161 1.28226 0.437161C1.18844 0.468387 1.28226 0.546451 1.1728 0.577677C1.09462 0.562064 1.20408 0.515225 1.1728 0.515225C1.09462 0.437161 1.06334 0.608902 0.96952 0.608902L0.985157 0.593289C0.922608 0.608902 0.891334 0.702579 0.828785 0.76503C0.828785 0.76503 0.828785 0.749418 0.813147 0.749418C0.813147 0.827482 0.734961 0.921158 0.703687 0.999222C0.68805 0.952384 0.703687 0.952384 0.672413 0.936771C0.641138 0.967997 0.719324 0.967997 0.68805 1.03045C0.656775 1.03045 0.609864 1.06167 0.562952 1.04606L0.609864 0.98361C0.547315 0.999222 0.547315 1.07729 0.51604 1.0929L0.500403 1.07729C0.453492 1.18658 0.500403 1.2178 0.437854 1.31148H0.453492C0.484766 1.40516 0.40658 1.3427 0.40658 1.42077H0.344031C0.344031 1.46761 0.328394 1.5769 0.328394 1.65496C0.297119 1.60812 0.312757 1.51445 0.312757 1.45199C0.297119 1.48322 0.265845 1.59251 0.281482 1.62373C0.281482 1.60812 0.281482 1.5769 0.281482 1.56128C0.312757 1.62373 0.312757 1.7018 0.281482 1.77986C0.172022 1.73302 0.203296 1.98283 0.0938355 2.02967C0.12511 2.1858 0.0312867 2.32631 0.0469239 2.51366C0.140747 2.45121 0.0469239 2.5605 0.140747 2.5605C0.140747 2.60734 0.140747 2.62295 0.140747 2.62295L0.0938355 2.74786C0.0625611 2.77908 0.0781983 2.71663 0.0469239 2.71663C0.0469239 2.81031 0.0156494 2.76347 -0.015625 2.82592C0.0156494 2.81031 0.0312867 2.85715 0.0312867 2.90398L0.0781983 2.81031C0.140747 2.93521 0.0156494 2.9196 0.0781983 3.0445L0.0469239 3.01327C0.0781983 3.07573 0.0781983 3.26308 0.172022 3.30992C0.156384 3.32553 0.140747 3.34114 0.12511 3.30992C0.140747 3.46605 0.281482 3.62217 0.265845 3.74708H0.23457C0.250208 3.7783 0.297119 3.7783 0.281482 3.82514C0.265845 3.82514 0.250208 3.82514 0.265845 3.84075C0.250208 3.85637 0.312757 3.9032 0.312757 3.93443L0.281482 3.9032C0.297119 4.05933 0.40658 4.10617 0.469129 4.21546C0.40658 4.23107 0.422217 4.35598 0.437854 4.41843H0.422217C0.469129 4.59017 0.578589 4.68384 0.656775 4.82436C0.625501 4.94926 0.766236 5.13662 0.813147 5.30836C0.813147 5.27713 0.860059 5.29274 0.875696 5.30836C0.875696 5.35519 0.96952 5.37081 0.906971 5.40203V5.38642C0.860059 5.43326 0.906971 5.49571 0.938245 5.55816L1.01643 5.52694C0.985157 5.7299 1.25099 5.8548 1.20408 5.99532C1.23535 6.01093 1.26663 6.05777 1.2979 6.07338L1.28226 6.089C1.32918 6.18267 1.34481 6.22951 1.43864 6.3388H1.39172C1.423 6.40125 1.5481 6.3388 1.59501 6.40125L1.5481 6.44809C1.61065 6.55738 1.64192 6.6979 1.76702 6.76035C1.75138 6.76035 1.73574 6.77596 1.72011 6.76035C1.75138 6.80719 1.81393 6.97893 1.87648 6.90086C1.82957 6.93209 1.95466 7.01015 2.01721 7.04138L1.9703 7.05699C2.04849 7.0726 2.06413 7.05699 2.12667 7.11944C2.12667 7.13505 2.11104 7.15067 2.0954 7.11944C2.11104 7.18189 2.15795 7.13505 2.18922 7.21312H2.14231C2.17359 7.25996 2.18922 7.25996 2.23613 7.25996C2.28305 7.27557 2.29868 7.36925 2.28305 7.40047C2.31432 7.38486 2.36123 7.40047 2.37687 7.4317C2.36123 7.44731 2.34559 7.44731 2.34559 7.4317C2.39251 7.54099 2.48633 7.52537 2.50197 7.60344C2.48633 7.61905 2.48633 7.61905 2.48633 7.63466C2.42378 7.57221 2.39251 7.50976 2.39251 7.50976C2.36123 7.54099 2.40814 7.58782 2.32996 7.58782C2.39251 7.61905 2.50197 7.65028 2.53324 7.71273V7.72834H2.5176C2.5176 7.74395 2.53324 7.74395 2.54888 7.75957C2.56452 7.77518 2.56452 7.79079 2.58015 7.8064C2.56452 7.83763 2.61143 7.88447 2.6427 7.90008C2.67398 7.86886 2.70525 7.90008 2.70525 7.85324C2.70525 7.85324 2.68961 7.85324 2.67398 7.83763C2.67398 7.83763 2.65834 7.83763 2.65834 7.82202C2.6427 7.8064 2.62706 7.77518 2.59579 7.75957C2.62706 7.75957 2.65834 7.77518 2.67398 7.82202C2.70525 7.82202 2.73653 7.8064 2.75216 7.8064C2.73653 7.88447 2.78344 7.97815 2.75216 8.00937C2.84599 8.07182 2.93981 8.18111 3.03363 8.18111C3.06491 8.19672 3.03363 8.22795 3.03363 8.24356C3.018 8.24356 3.00236 8.22795 2.98672 8.22795C3.04927 8.25918 3.11182 8.35285 3.17437 8.32163C3.20564 8.39969 3.11182 8.32163 3.19 8.39969H3.17437C3.25255 8.61827 3.51839 8.54021 3.59657 8.7744C3.59657 8.75879 3.58094 8.74317 3.59657 8.74317C3.75294 8.96175 4.01878 9.07104 4.15951 9.30523C4.20642 9.36768 4.2377 9.33646 4.28461 9.35207L4.26897 9.39891H4.3628C4.47226 9.43014 4.44098 9.60188 4.58172 9.6331V9.60188C4.61299 9.6331 4.72245 9.67994 4.69118 9.71117C4.69118 9.71117 4.72245 9.69555 4.72245 9.72678L4.70681 9.74239L4.83191 9.78923C4.89446 9.86729 4.75373 9.85168 4.86319 9.94536C4.9101 9.97658 5.01956 9.97658 5.01956 9.94536C5.00392 9.92975 4.98828 9.89852 5.00392 9.88291L5.05083 9.89852C5.09774 9.85168 5.17593 9.80484 5.11338 9.69555L5.01956 9.67994V9.6331L5.06647 9.66433C5.05083 9.61749 5.01956 9.61749 4.98828 9.61749C4.98828 9.60188 4.98828 9.58626 4.98828 9.57065H4.87882C4.89446 9.53943 4.94137 9.55504 4.9101 9.5082C4.86319 9.5082 4.89446 9.58626 4.83191 9.55504C4.81628 9.5082 4.84755 9.49259 4.80064 9.49259C4.80064 9.47697 4.81628 9.47697 4.84755 9.47697C4.80064 9.47697 4.75373 9.41452 4.72245 9.43014C4.72245 9.36769 4.61299 9.35207 4.6599 9.30523C4.64427 9.30523 4.56608 9.30523 4.53481 9.28962C4.64427 9.27401 4.44098 9.19594 4.50353 9.14911C4.42534 9.18033 4.34716 9.05543 4.25334 9.03982C4.25334 9.03982 4.26897 9.03982 4.28461 9.03982C4.25334 9.00859 4.25334 8.97736 4.2377 8.94614C4.19079 8.99298 4.12824 8.94614 4.06569 8.94614C4.06569 8.86808 4.14388 8.91491 4.15951 8.86808C4.12824 8.91491 4.05005 8.83685 4.03441 8.88369C4.01878 8.82124 4.01878 8.83685 4.03441 8.79001C3.97187 8.83685 3.9875 8.7744 3.94059 8.7744C3.92495 8.69633 3.97187 8.71195 3.90932 8.68072C3.94059 8.6495 4.01878 8.68072 4.01878 8.68072ZM2.73653 7.52537C2.75216 7.54099 2.75216 7.54099 2.7678 7.5566C2.75216 7.54099 2.73653 7.54099 2.73653 7.52537ZM2.62706 7.41608C2.6427 7.4317 2.65834 7.44731 2.67398 7.46292C2.65834 7.47854 2.6427 7.47854 2.6427 7.47854C2.65834 7.47854 2.6427 7.44731 2.62706 7.41608ZM2.61143 7.85324C2.59579 7.83763 2.59579 7.82202 2.59579 7.82202C2.59579 7.83763 2.61143 7.83763 2.62706 7.85324C2.61143 7.83763 2.61143 7.85324 2.61143 7.85324Z" fill="#FF6F6F"/>
<path d="M1.53223 5.74551V5.76113H1.54786L1.53223 5.74551Z" fill="#FF6F6F"/>
<path d="M5.73877 3.46604L5.75441 3.51288C5.73877 3.49727 5.73877 3.48165 5.73877 3.46604Z" fill="#FF6F6F"/>
<path d="M4.2847 1.20219C4.26907 1.20219 4.25343 1.18658 4.23779 1.18658C4.25343 1.20219 4.26907 1.2178 4.2847 1.20219Z" fill="#FF6F6F"/>
<path d="M4.20654 1.15535C4.22218 1.17096 4.22218 1.18658 4.23782 1.20219C4.23782 1.17096 4.22218 1.15535 4.20654 1.15535Z" fill="#FF6F6F"/>
<path d="M6.30176 4.77752C6.31739 4.79313 6.31739 4.77752 6.30176 4.77752V4.77752Z" fill="#FF6F6F"/>
<path d="M6.34878 4.82436L6.33314 4.80875C6.3175 4.80875 6.33314 4.80875 6.34878 4.82436Z" fill="#FF6F6F"/>
<path d="M6.17677 4.43404H6.16113C6.16113 4.44965 6.16113 4.44965 6.17677 4.43404Z" fill="#FF6F6F"/>
<path d="M6.12988 4.34036C6.12988 4.37159 6.12988 4.41843 6.14552 4.43404H6.16116C6.12988 4.43404 6.16116 4.35598 6.12988 4.34036Z" fill="#FF6F6F"/>
<path d="M6.11426 3.85636L6.14553 3.95004C6.16117 3.93443 6.16117 3.9032 6.19244 3.93443C6.17681 3.80952 6.16117 3.96565 6.11426 3.85636Z" fill="#FF6F6F"/>
<path d="M6.02002 3.59095C6.05129 3.63779 6.03566 3.57533 6.05129 3.57533C6.02002 3.55972 6.02002 3.55972 6.02002 3.59095Z" fill="#FF6F6F"/>
<path d="M5.00391 1.8267L5.03518 1.81109C5.00391 1.77986 5.01954 1.8267 5.00391 1.8267Z" fill="#FF6F6F"/>
<path d="M4.61279 1.63934V1.68618H4.64407L4.61279 1.63934Z" fill="#FF6F6F"/>
<path d="M4.69144 1.28025V1.29586L4.64453 1.26463L4.69144 1.28025Z" fill="#FF6F6F"/>
<path d="M1.51709 0.249807L1.54836 0.296646C1.57964 0.26542 1.564 0.218582 1.51709 0.249807Z" fill="#FF6F6F"/>
<path d="M0.422165 1.29586C0.39089 1.29586 0.359616 1.32709 0.375253 1.37392C0.375253 1.32709 0.406527 1.31147 0.422165 1.29586Z" fill="#FF6F6F"/>
<path d="M1.001 5.605L0.969727 5.58939L1.01664 5.63622L1.001 5.605Z" fill="#FF6F6F"/>
<path d="M4.957 11.6003C5.96743 11.6003 6.78655 10.7825 6.78655 9.77361C6.78655 8.76475 5.96743 7.94691 4.957 7.94691C3.94656 7.94691 3.12744 8.76475 3.12744 9.77361C3.12744 10.7825 3.94656 11.6003 4.957 11.6003Z" fill="#FFD458"/>
</g>
<defs>
<clipPath id="clip0">
<rect width="60" height="25.7143" fill="white"/>
</clipPath>
</defs>
</svg>
