<svg width="63" height="59" viewBox="0 0 63 59" fill="none" xmlns="http://www.w3.org/2000/svg">
<path d="M45.1504 37.636L38.7254 46.2987L42.0063 50.4935C42.5335 51.1568 42.3968 52.0738 41.7524 52.6006C41.0884 53.1274 40.1706 52.9908 39.6433 52.347L37.0069 48.7765L29.5273 59.0001H60.8906L45.1504 37.636Z" fill="#00F0FF" fill-opacity="0.5"/>
<path d="M15.6232 22.8078C19.3873 22.8078 22.4387 19.7593 22.4387 15.9986C22.4387 12.238 19.3873 9.18945 15.6232 9.18945C11.859 9.18945 8.80762 12.238 8.80762 15.9986C8.80762 19.7593 11.859 22.8078 15.6232 22.8078Z" fill="#00F0FF" fill-opacity="0.5"/>
<path d="M22.712 27.9196C22.9659 27.5294 23.4932 27.3929 23.8838 27.3929C24.411 27.3929 24.8016 27.6465 25.0555 28.0562L37.0071 43.9183L44.0961 34.3386C44.6234 33.5582 45.9318 33.5582 46.4591 34.3386L63 56.7758V0H0V57.0294L22.712 27.9196ZM15.6231 6.30192C21.013 6.30192 25.3289 10.6333 25.3289 15.9987C25.3289 21.3641 20.9935 25.6954 15.6231 25.6954C10.2526 25.6954 5.89771 21.3641 5.89771 15.9987C5.78053 10.6138 10.2331 6.30192 15.6231 6.30192Z" fill="#00F0FF" fill-opacity="0.5"/>
<path d="M23.7468 31.1975L2.22607 59.0001H25.7193L35.0345 46.2792L23.7468 31.1975Z" fill="#00F0FF" fill-opacity="0.5"/>
</svg>
